<svg width="540" height="400" viewBox="0 0 540 400" fill="none" xmlns="http://www.w3.org/2000/svg">
<path d="M0 0H540V400H0V0Z" fill="#E2F4F6"/>
<rect x="345" width="80" height="400" fill="url(#paint0_linear_195_66)"/>
<rect x="460" width="80" height="400" fill="url(#paint1_linear_195_66)"/>
<rect x="230" width="80" height="400" fill="url(#paint2_linear_195_66)"/>
<rect x="115" width="80" height="400" fill="url(#paint3_linear_195_66)"/>
<rect width="80" height="400" fill="url(#paint4_linear_195_66)"/>
<g filter="url(#filter0_d_195_66)">
<path d="M106.223 203.84V121.8H130.093V203.84H106.223ZM164.076 205.31C160.483 205.31 157.123 204.983 153.996 204.33C150.916 203.723 148.326 202.907 146.226 201.88C144.126 200.853 142.399 199.873 141.046 198.94C139.739 198.007 138.643 197.073 137.756 196.14L139.506 179.13C141.419 181.697 143.986 183.937 147.206 185.85C150.426 187.717 153.903 188.65 157.636 188.65C161.369 188.65 164.053 188.253 165.686 187.46C167.366 186.667 168.206 185.22 168.206 183.12C168.206 180.88 167.249 178.967 165.336 177.38C163.469 175.793 160.226 173.88 155.606 171.64C153.926 170.8 152.503 170.053 151.336 169.4C150.169 168.7 148.606 167.58 146.646 166.04C144.733 164.453 143.169 162.82 141.956 161.14C140.743 159.413 139.669 157.22 138.736 154.56C137.803 151.853 137.336 148.96 137.336 145.88C137.336 129.22 146.739 120.89 165.546 120.89C168.533 120.89 171.333 121.217 173.946 121.87C176.606 122.477 178.683 123.153 180.176 123.9C181.669 124.647 183.023 125.533 184.236 126.56C185.496 127.54 186.289 128.24 186.616 128.66C186.943 129.033 187.176 129.337 187.316 129.57L183.816 143.08C181.996 140.933 179.709 139.347 176.956 138.32C174.249 137.247 171.659 136.71 169.186 136.71C163.213 136.71 160.226 138.577 160.226 142.31C160.226 143.29 160.413 144.177 160.786 144.97C161.159 145.763 161.766 146.487 162.606 147.14C163.446 147.793 164.216 148.353 164.916 148.82C165.663 149.287 166.666 149.87 167.926 150.57C169.233 151.223 170.213 151.76 170.866 152.18C177.679 155.073 182.673 158.503 185.846 162.47C189.066 166.437 190.676 171.267 190.676 176.96C190.676 186.2 188.389 193.247 183.816 198.1C179.289 202.907 172.709 205.31 164.076 205.31ZM222.523 205.31C218.93 205.31 215.57 204.983 212.443 204.33C209.363 203.723 206.773 202.907 204.673 201.88C202.573 200.853 200.847 199.873 199.493 198.94C198.187 198.007 197.09 197.073 196.203 196.14L197.953 179.13C199.867 181.697 202.433 183.937 205.653 185.85C208.873 187.717 212.35 188.65 216.083 188.65C219.817 188.65 222.5 188.253 224.133 187.46C225.813 186.667 226.653 185.22 226.653 183.12C226.653 180.88 225.697 178.967 223.783 177.38C221.917 175.793 218.673 173.88 214.053 171.64C212.373 170.8 210.95 170.053 209.783 169.4C208.617 168.7 207.053 167.58 205.093 166.04C203.18 164.453 201.617 162.82 200.403 161.14C199.19 159.413 198.117 157.22 197.183 154.56C196.25 151.853 195.783 148.96 195.783 145.88C195.783 129.22 205.187 120.89 223.993 120.89C226.98 120.89 229.78 121.217 232.393 121.87C235.053 122.477 237.13 123.153 238.623 123.9C240.117 124.647 241.47 125.533 242.683 126.56C243.943 127.54 244.737 128.24 245.063 128.66C245.39 129.033 245.623 129.337 245.763 129.57L242.263 143.08C240.443 140.933 238.157 139.347 235.403 138.32C232.697 137.247 230.107 136.71 227.633 136.71C221.66 136.71 218.673 138.577 218.673 142.31C218.673 143.29 218.86 144.177 219.233 144.97C219.607 145.763 220.213 146.487 221.053 147.14C221.893 147.793 222.663 148.353 223.363 148.82C224.11 149.287 225.113 149.87 226.373 150.57C227.68 151.223 228.66 151.76 229.313 152.18C236.127 155.073 241.12 158.503 244.293 162.47C247.513 166.437 249.123 171.267 249.123 176.96C249.123 186.2 246.837 193.247 242.263 198.1C237.737 202.907 231.157 205.31 222.523 205.31ZM288.251 205.31C283.444 205.31 279.174 204.843 275.441 203.91C271.754 202.977 268.721 201.717 266.341 200.13C264.007 198.543 262.071 196.583 260.531 194.25C259.037 191.87 257.987 189.373 257.381 186.76C256.774 184.147 256.471 181.253 256.471 178.08V121.8H281.391V174.93C281.391 180.857 281.997 184.94 283.211 187.18C284.471 189.373 286.291 190.47 288.671 190.47C289.977 190.47 291.121 190.26 292.101 189.84C293.081 189.373 293.991 188.603 294.831 187.53C295.671 186.41 296.301 184.823 296.721 182.77C297.187 180.67 297.421 178.127 297.421 175.14V121.8H319.541V178.5C319.541 181.627 319.261 184.45 318.701 186.97C318.187 189.49 317.207 191.94 315.761 194.32C314.361 196.653 312.494 198.613 310.161 200.2C307.874 201.74 304.864 202.977 301.131 203.91C297.444 204.843 293.151 205.31 288.251 205.31ZM378.563 203.84H328.933V121.8H377.513L376.113 138.32L352.103 137.62V153.44H371.003V169.82L352.103 168.42V187.04L378.563 186.34V203.84ZM409.349 205.31C405.756 205.31 402.396 204.983 399.269 204.33C396.189 203.723 393.599 202.907 391.499 201.88C389.399 200.853 387.673 199.873 386.319 198.94C385.013 198.007 383.916 197.073 383.029 196.14L384.779 179.13C386.693 181.697 389.259 183.937 392.479 185.85C395.699 187.717 399.176 188.65 402.909 188.65C406.643 188.65 409.326 188.253 410.959 187.46C412.639 186.667 413.479 185.22 413.479 183.12C413.479 180.88 412.523 178.967 410.609 177.38C408.743 175.793 405.499 173.88 400.879 171.64C399.199 170.8 397.776 170.053 396.609 169.4C395.443 168.7 393.879 167.58 391.919 166.04C390.006 164.453 388.443 162.82 387.229 161.14C386.016 159.413 384.943 157.22 384.009 154.56C383.076 151.853 382.609 148.96 382.609 145.88C382.609 129.22 392.013 120.89 410.819 120.89C413.806 120.89 416.606 121.217 419.219 121.87C421.879 122.477 423.956 123.153 425.449 123.9C426.943 124.647 428.296 125.533 429.509 126.56C430.769 127.54 431.563 128.24 431.889 128.66C432.216 129.033 432.449 129.337 432.589 129.57L429.089 143.08C427.269 140.933 424.983 139.347 422.229 138.32C419.523 137.247 416.933 136.71 414.459 136.71C408.486 136.71 405.499 138.577 405.499 142.31C405.499 143.29 405.686 144.177 406.059 144.97C406.433 145.763 407.039 146.487 407.879 147.14C408.719 147.793 409.489 148.353 410.189 148.82C410.936 149.287 411.939 149.87 413.199 150.57C414.506 151.223 415.486 151.76 416.139 152.18C422.953 155.073 427.946 158.503 431.119 162.47C434.339 166.437 435.949 171.267 435.949 176.96C435.949 186.2 433.663 193.247 429.089 198.1C424.563 202.907 417.983 205.31 409.349 205.31Z" fill="#0075FF"/>
</g>
<path d="M270.5 243.904C269.994 239.544 266.855 233.32 258.352 233.796C247.722 234.39 246.787 244.767 248.937 252.229C252.277 263.825 268.981 271.258 270.5 275.123C271.411 271.258 288.723 263.825 292.063 252.229C294.213 244.767 293.278 234.39 282.648 233.796C274.145 233.32 271.006 239.544 270.5 243.904Z" fill="#0075FF"/>
<g filter="url(#filter1_d_195_66)">
<path d="M126.651 110H112.308V59.2133H140.908V70.2633L126.651 69.3967V81.1833H138.351V91.93L126.651 91.0633V110ZM169.343 110L167.393 101.897H155.087L153.44 110H140.7L153.917 62.7233L152.877 59.2133H170.773L185.247 110H169.343ZM160.677 74.12L156.863 93.0567H165.27L160.677 74.12ZM219.023 106.403L218.633 106.88C218.344 107.169 217.853 107.544 217.159 108.007C216.495 108.44 215.686 108.888 214.733 109.35C213.808 109.783 212.566 110.144 211.006 110.433C209.446 110.751 207.771 110.91 205.979 110.91C202.195 110.91 198.959 110.289 196.273 109.047C193.586 107.776 191.477 105.941 189.946 103.543C188.444 101.117 187.361 98.3867 186.696 95.3533C186.032 92.2911 185.699 88.7522 185.699 84.7367C185.699 80.4611 186.032 76.7778 186.696 73.6867C187.361 70.5667 188.458 67.8367 189.989 65.4967C191.549 63.1278 193.687 61.3511 196.403 60.1667C199.118 58.9822 202.426 58.39 206.326 58.39C208.117 58.39 209.793 58.5489 211.353 58.8667C212.942 59.1844 214.184 59.5456 215.079 59.95C216.004 60.3544 216.827 60.8167 217.549 61.3367C218.301 61.8567 218.763 62.2178 218.936 62.42C219.138 62.6222 219.283 62.7811 219.369 62.8967L218.719 72.8633H212.133L209.879 67.7067C209.359 67.5622 208.926 67.49 208.579 67.49C206.644 67.49 205.156 67.9378 204.116 68.8333C203.076 69.7 202.282 71.4189 201.733 73.99C201.184 76.5322 200.909 80.2011 200.909 84.9967C200.909 87.8567 201.083 90.3556 201.429 92.4933C201.805 94.6311 202.253 96.2778 202.773 97.4333C203.293 98.56 203.914 99.47 204.636 100.163C205.358 100.857 206.008 101.304 206.586 101.507C207.164 101.68 207.785 101.767 208.449 101.767C209.923 101.767 211.468 101.593 213.086 101.247C214.704 100.871 216.033 100.308 217.073 99.5567L219.023 106.403ZM253.607 110H222.884V59.2133H252.957L252.09 69.44L237.227 69.0067V78.8H248.927V88.94L237.227 88.0733V99.6L253.607 99.1667V110ZM275.222 101.507C277.273 101.507 278.775 100.929 279.729 99.7733C280.682 98.6178 281.159 97.2456 281.159 95.6567V92.6233C281.159 90.7456 280.552 89.4167 279.339 88.6367C278.125 87.8278 276.753 87.4233 275.222 87.4233H271.842V101.507H275.222ZM280.552 72.2133C280.552 70.48 280.075 69.2811 279.122 68.6167C278.169 67.9233 276.796 67.5767 275.005 67.5767H271.842V80.1H275.352C277.028 80.1 278.313 79.45 279.209 78.15C280.104 76.8211 280.552 75.2033 280.552 73.2967V72.2133ZM278.169 110.39C275.915 110.39 272.998 110.332 269.415 110.217C265.833 110.101 263.262 110.029 261.702 110H257.542V59.2133H265.039C266.859 59.2133 268.939 59.1556 271.279 59.04C273.619 58.8956 275.309 58.8233 276.349 58.8233C279.729 58.8233 282.574 59.0978 284.885 59.6467C287.225 60.1956 289.06 61.0189 290.389 62.1167C291.718 63.2144 292.656 64.4856 293.205 65.93C293.783 67.3744 294.072 69.0933 294.072 71.0867C294.072 74.1489 293.364 76.7778 291.949 78.9733C290.533 81.1689 288.482 82.5411 285.795 83.09C292.613 83.6967 296.022 87.6978 296.022 95.0933C296.022 97.3178 295.69 99.34 295.025 101.16C294.361 102.951 293.335 104.554 291.949 105.97C290.591 107.357 288.742 108.44 286.402 109.22C284.062 110 281.318 110.39 278.169 110.39ZM314.761 90.37C314.761 95.1656 315.122 98.5022 315.845 100.38C316.596 102.258 317.896 103.197 319.745 103.197C321.102 103.197 322.128 102.864 322.821 102.2C323.515 101.507 324.035 100.106 324.381 97.9967C324.757 95.8589 324.945 92.6667 324.945 88.42V77.9767C324.945 73.8456 324.54 70.7689 323.731 68.7467C322.922 66.7244 321.594 65.7133 319.745 65.7133C317.896 65.7133 316.596 66.71 315.845 68.7033C315.122 70.6678 314.761 74.2644 314.761 79.4933V90.37ZM318.835 110.91C316.437 110.91 314.27 110.693 312.335 110.26C310.428 109.827 308.781 109.22 307.395 108.44C306.008 107.66 304.795 106.663 303.755 105.45C302.744 104.237 301.92 102.937 301.285 101.55C300.678 100.163 300.187 98.5456 299.811 96.6967C299.436 94.8189 299.176 92.9556 299.031 91.1067C298.887 89.2289 298.815 87.12 298.815 84.78C298.815 81.3133 298.988 78.2944 299.335 75.7233C299.71 73.1522 300.389 70.74 301.371 68.4867C302.354 66.2044 303.654 64.3556 305.271 62.94C306.918 61.5244 309.027 60.4122 311.598 59.6033C314.198 58.7944 317.26 58.39 320.785 58.39C323.211 58.39 325.392 58.6211 327.328 59.0833C329.264 59.5167 330.925 60.1233 332.311 60.9033C333.698 61.6833 334.897 62.6944 335.908 63.9367C336.948 65.1789 337.771 66.5078 338.378 67.9233C339.014 69.31 339.519 70.9422 339.895 72.82C340.27 74.6978 340.53 76.5611 340.675 78.41C340.819 80.2589 340.891 82.3533 340.891 84.6933C340.891 88.16 340.704 91.1789 340.328 93.75C339.952 96.3211 339.274 98.7333 338.291 100.987C337.309 103.211 335.995 105.031 334.348 106.447C332.701 107.833 330.578 108.931 327.978 109.74C325.407 110.52 322.359 110.91 318.835 110.91ZM360.084 90.37C360.084 95.1656 360.445 98.5022 361.167 100.38C361.918 102.258 363.218 103.197 365.067 103.197C366.425 103.197 367.45 102.864 368.144 102.2C368.837 101.507 369.357 100.106 369.704 97.9967C370.079 95.8589 370.267 92.6667 370.267 88.42V77.9767C370.267 73.8456 369.862 70.7689 369.054 68.7467C368.245 66.7244 366.916 65.7133 365.067 65.7133C363.218 65.7133 361.918 66.71 361.167 68.7033C360.445 70.6678 360.084 74.2644 360.084 79.4933V90.37ZM364.157 110.91C361.759 110.91 359.592 110.693 357.657 110.26C355.75 109.827 354.104 109.22 352.717 108.44C351.33 107.66 350.117 106.663 349.077 105.45C348.066 104.237 347.242 102.937 346.607 101.55C346 100.163 345.509 98.5456 345.134 96.6967C344.758 94.8189 344.498 92.9556 344.354 91.1067C344.209 89.2289 344.137 87.12 344.137 84.78C344.137 81.3133 344.31 78.2944 344.657 75.7233C345.032 73.1522 345.711 70.74 346.694 68.4867C347.676 66.2044 348.976 64.3556 350.594 62.94C352.24 61.5244 354.349 60.4122 356.92 59.6033C359.52 58.7944 362.582 58.39 366.107 58.39C368.534 58.39 370.715 58.6211 372.65 59.0833C374.586 59.5167 376.247 60.1233 377.634 60.9033C379.02 61.6833 380.219 62.6944 381.23 63.9367C382.27 65.1789 383.094 66.5078 383.7 67.9233C384.336 69.31 384.841 70.9422 385.217 72.82C385.592 74.6978 385.852 76.5611 385.997 78.41C386.141 80.2589 386.214 82.3533 386.214 84.6933C386.214 88.16 386.026 91.1789 385.65 93.75C385.275 96.3211 384.596 98.7333 383.614 100.987C382.631 103.211 381.317 105.031 379.67 106.447C378.024 107.833 375.9 108.931 373.3 109.74C370.729 110.52 367.681 110.91 364.157 110.91ZM415.286 110C414.939 109.567 414.188 107.877 413.032 104.93C411.906 101.954 410.577 98.6033 409.046 94.8767C407.544 91.1211 406.215 88.2756 405.059 86.34V110H390.716V59.2133H405.059V83.5233L415.849 59.2133H430.279L417.366 83.0467C418.204 83.6244 419.316 85.1989 420.702 87.77C422.089 90.3411 423.389 93.0422 424.602 95.8733C425.816 98.7044 427.072 101.55 428.373 104.41C429.672 107.241 430.626 109.104 431.232 110H415.286Z" fill="#0075FF"/>
</g>
<path d="M67.025 333.5H71.1C72.5167 333.5 73.55 333.833 74.2 334.5C74.85 335.15 75.175 336.158 75.175 337.525V338.6C75.175 340.417 74.575 341.567 73.375 342.05V342.1C74.0417 342.3 74.5083 342.708 74.775 343.325C75.0583 343.942 75.2 344.767 75.2 345.8V348.875C75.2 349.375 75.2167 349.783 75.25 350.1C75.2833 350.4 75.3667 350.7 75.5 351H72.7C72.6 350.717 72.5333 350.45 72.5 350.2C72.4667 349.95 72.45 349.5 72.45 348.85V345.65C72.45 344.85 72.3167 344.292 72.05 343.975C71.8 343.658 71.3583 343.5 70.725 343.5H69.775V351H67.025V333.5ZM70.775 341C71.325 341 71.7333 340.858 72 340.575C72.2833 340.292 72.425 339.817 72.425 339.15V337.8C72.425 337.167 72.3083 336.708 72.075 336.425C71.8583 336.142 71.5083 336 71.025 336H69.775V341H70.775ZM77.108 333.5H84.608V336H79.858V340.625H83.633V343.125H79.858V348.5H84.608V351H77.108V333.5ZM88.315 333.5H92.04L94.89 351H92.14L91.64 347.525V347.575H88.515L88.015 351H85.465L88.315 333.5ZM91.315 345.2L90.09 336.55H90.04L88.84 345.2H91.315ZM100.05 351.25C98.7337 351.25 97.7254 350.875 97.0254 350.125C96.3421 349.375 96.0004 348.317 96.0004 346.95V337.55C96.0004 336.183 96.3421 335.125 97.0254 334.375C97.7254 333.625 98.7337 333.25 100.05 333.25C101.367 333.25 102.367 333.625 103.05 334.375C103.75 335.125 104.1 336.183 104.1 337.55V339.4H101.5V337.375C101.5 336.292 101.042 335.75 100.125 335.75C99.2087 335.75 98.7504 336.292 98.7504 337.375V347.15C98.7504 348.217 99.2087 348.75 100.125 348.75C101.042 348.75 101.5 348.217 101.5 347.15V344.475H104.1V346.95C104.1 348.317 103.75 349.375 103.05 350.125C102.367 350.875 101.367 351.25 100.05 351.25ZM107.896 336H105.021V333.5H113.521V336H110.646V351H107.896V336ZM118.856 333.5H122.931C124.348 333.5 125.381 333.833 126.031 334.5C126.681 335.15 127.006 336.158 127.006 337.525V338.6C127.006 340.417 126.406 341.567 125.206 342.05V342.1C125.873 342.3 126.339 342.708 126.606 343.325C126.889 343.942 127.031 344.767 127.031 345.8V348.875C127.031 349.375 127.048 349.783 127.081 350.1C127.114 350.4 127.198 350.7 127.331 351H124.531C124.431 350.717 124.364 350.45 124.331 350.2C124.298 349.95 124.281 349.5 124.281 348.85V345.65C124.281 344.85 124.148 344.292 123.881 343.975C123.631 343.658 123.189 343.5 122.556 343.5H121.606V351H118.856V333.5ZM122.606 341C123.156 341 123.564 340.858 123.831 340.575C124.114 340.292 124.256 339.817 124.256 339.15V337.8C124.256 337.167 124.139 336.708 123.906 336.425C123.689 336.142 123.339 336 122.856 336H121.606V341H122.606ZM128.939 333.5H136.439V336H131.689V340.625H135.464V343.125H131.689V348.5H136.439V351H128.939V333.5ZM138.021 333.5H142.071C143.438 333.5 144.463 333.867 145.146 334.6C145.829 335.333 146.171 336.408 146.171 337.825V339.55C146.171 340.967 145.829 342.042 145.146 342.775C144.463 343.508 143.438 343.875 142.071 343.875H140.771V351H138.021V333.5ZM142.071 341.375C142.521 341.375 142.854 341.25 143.071 341C143.304 340.75 143.421 340.325 143.421 339.725V337.65C143.421 337.05 143.304 336.625 143.071 336.375C142.854 336.125 142.521 336 142.071 336H140.771V341.375H142.071ZM151.64 351.25C150.29 351.25 149.256 350.867 148.54 350.1C147.823 349.333 147.465 348.25 147.465 346.85V337.65C147.465 336.25 147.823 335.167 148.54 334.4C149.256 333.633 150.29 333.25 151.64 333.25C152.99 333.25 154.023 333.633 154.74 334.4C155.456 335.167 155.815 336.25 155.815 337.65V346.85C155.815 348.25 155.456 349.333 154.74 350.1C154.023 350.867 152.99 351.25 151.64 351.25ZM151.64 348.75C152.59 348.75 153.065 348.175 153.065 347.025V337.475C153.065 336.325 152.59 335.75 151.64 335.75C150.69 335.75 150.215 336.325 150.215 337.475V347.025C150.215 348.175 150.69 348.75 151.64 348.75ZM161.249 351.25C159.916 351.25 158.908 350.875 158.224 350.125C157.541 349.358 157.199 348.267 157.199 346.85V345.85H159.799V347.05C159.799 348.183 160.274 348.75 161.224 348.75C161.691 348.75 162.041 348.617 162.274 348.35C162.524 348.067 162.649 347.617 162.649 347C162.649 346.267 162.483 345.625 162.149 345.075C161.816 344.508 161.199 343.833 160.299 343.05C159.166 342.05 158.374 341.15 157.924 340.35C157.474 339.533 157.249 338.617 157.249 337.6C157.249 336.217 157.599 335.15 158.299 334.4C158.999 333.633 160.016 333.25 161.349 333.25C162.666 333.25 163.658 333.633 164.324 334.4C165.008 335.15 165.349 336.233 165.349 337.65V338.375H162.749V337.475C162.749 336.875 162.633 336.442 162.399 336.175C162.166 335.892 161.824 335.75 161.374 335.75C160.458 335.75 159.999 336.308 159.999 337.425C159.999 338.058 160.166 338.65 160.499 339.2C160.849 339.75 161.474 340.417 162.374 341.2C163.524 342.2 164.316 343.108 164.749 343.925C165.183 344.742 165.399 345.7 165.399 346.8C165.399 348.233 165.041 349.333 164.324 350.1C163.624 350.867 162.599 351.25 161.249 351.25ZM166.976 333.5H169.726V351H166.976V333.5ZM173.936 336H171.061V333.5H179.561V336H176.686V351H173.936V336ZM184.77 351.25C183.42 351.25 182.386 350.867 181.67 350.1C180.953 349.333 180.595 348.25 180.595 346.85V337.65C180.595 336.25 180.953 335.167 181.67 334.4C182.386 333.633 183.42 333.25 184.77 333.25C186.12 333.25 187.153 333.633 187.87 334.4C188.586 335.167 188.945 336.25 188.945 337.65V346.85C188.945 348.25 188.586 349.333 187.87 350.1C187.153 350.867 186.12 351.25 184.77 351.25ZM184.77 348.75C185.72 348.75 186.195 348.175 186.195 347.025V337.475C186.195 336.325 185.72 335.75 184.77 335.75C183.82 335.75 183.345 336.325 183.345 337.475V347.025C183.345 348.175 183.82 348.75 184.77 348.75ZM190.804 333.5H194.879C196.296 333.5 197.329 333.833 197.979 334.5C198.629 335.15 198.954 336.158 198.954 337.525V338.6C198.954 340.417 198.354 341.567 197.154 342.05V342.1C197.821 342.3 198.288 342.708 198.554 343.325C198.838 343.942 198.979 344.767 198.979 345.8V348.875C198.979 349.375 198.996 349.783 199.029 350.1C199.063 350.4 199.146 350.7 199.279 351H196.479C196.379 350.717 196.313 350.45 196.279 350.2C196.246 349.95 196.229 349.5 196.229 348.85V345.65C196.229 344.85 196.096 344.292 195.829 343.975C195.579 343.658 195.138 343.5 194.504 343.5H193.554V351H190.804V333.5ZM194.554 341C195.104 341 195.513 340.858 195.779 340.575C196.063 340.292 196.204 339.817 196.204 339.15V337.8C196.204 337.167 196.088 336.708 195.854 336.425C195.638 336.142 195.288 336 194.804 336H193.554V341H194.554ZM203.022 343.55L199.697 333.5H202.622L204.497 339.925H204.547L206.422 333.5H209.097L205.772 343.55V351H203.022V343.55ZM214.339 333.5H217.089V351H214.339V333.5ZM222.724 351.25C221.391 351.25 220.382 350.875 219.699 350.125C219.016 349.358 218.674 348.267 218.674 346.85V345.85H221.274V347.05C221.274 348.183 221.749 348.75 222.699 348.75C223.166 348.75 223.516 348.617 223.749 348.35C223.999 348.067 224.124 347.617 224.124 347C224.124 346.267 223.957 345.625 223.624 345.075C223.291 344.508 222.674 343.833 221.774 343.05C220.641 342.05 219.849 341.15 219.399 340.35C218.949 339.533 218.724 338.617 218.724 337.6C218.724 336.217 219.074 335.15 219.774 334.4C220.474 333.633 221.491 333.25 222.824 333.25C224.141 333.25 225.132 333.633 225.799 334.4C226.482 335.15 226.824 336.233 226.824 337.65V338.375H224.224V337.475C224.224 336.875 224.107 336.442 223.874 336.175C223.641 335.892 223.299 335.75 222.849 335.75C221.932 335.75 221.474 336.308 221.474 337.425C221.474 338.058 221.641 338.65 221.974 339.2C222.324 339.75 222.949 340.417 223.849 341.2C224.999 342.2 225.791 343.108 226.224 343.925C226.657 344.742 226.874 345.7 226.874 346.8C226.874 348.233 226.516 349.333 225.799 350.1C225.099 350.867 224.074 351.25 222.724 351.25ZM232.026 351.25C230.692 351.25 229.684 350.875 229.001 350.125C228.317 349.358 227.976 348.267 227.976 346.85V345.85H230.576V347.05C230.576 348.183 231.051 348.75 232.001 348.75C232.467 348.75 232.817 348.617 233.051 348.35C233.301 348.067 233.426 347.617 233.426 347C233.426 346.267 233.259 345.625 232.926 345.075C232.592 344.508 231.976 343.833 231.076 343.05C229.942 342.05 229.151 341.15 228.701 340.35C228.251 339.533 228.026 338.617 228.026 337.6C228.026 336.217 228.376 335.15 229.076 334.4C229.776 333.633 230.792 333.25 232.126 333.25C233.442 333.25 234.434 333.633 235.101 334.4C235.784 335.15 236.126 336.233 236.126 337.65V338.375H233.526V337.475C233.526 336.875 233.409 336.442 233.176 336.175C232.942 335.892 232.601 335.75 232.151 335.75C231.234 335.75 230.776 336.308 230.776 337.425C230.776 338.058 230.942 338.65 231.276 339.2C231.626 339.75 232.251 340.417 233.151 341.2C234.301 342.2 235.092 343.108 235.526 343.925C235.959 344.742 236.176 345.7 236.176 346.8C236.176 348.233 235.817 349.333 235.101 350.1C234.401 350.867 233.376 351.25 232.026 351.25ZM241.753 351.25C240.419 351.25 239.403 350.875 238.703 350.125C238.003 349.358 237.653 348.267 237.653 346.85V333.5H240.403V347.05C240.403 347.65 240.519 348.083 240.753 348.35C241.003 348.617 241.353 348.75 241.803 348.75C242.253 348.75 242.594 348.617 242.828 348.35C243.078 348.083 243.203 347.65 243.203 347.05V333.5H245.853V346.85C245.853 348.267 245.503 349.358 244.803 350.125C244.103 350.875 243.086 351.25 241.753 351.25ZM247.811 333.5H255.311V336H250.561V340.625H254.336V343.125H250.561V348.5H255.311V351H247.811V333.5ZM260.517 351.25C259.184 351.25 258.175 350.875 257.492 350.125C256.809 349.358 256.467 348.267 256.467 346.85V345.85H259.067V347.05C259.067 348.183 259.542 348.75 260.492 348.75C260.959 348.75 261.309 348.617 261.542 348.35C261.792 348.067 261.917 347.617 261.917 347C261.917 346.267 261.75 345.625 261.417 345.075C261.084 344.508 260.467 343.833 259.567 343.05C258.434 342.05 257.642 341.15 257.192 340.35C256.742 339.533 256.517 338.617 256.517 337.6C256.517 336.217 256.867 335.15 257.567 334.4C258.267 333.633 259.284 333.25 260.617 333.25C261.934 333.25 262.925 333.633 263.592 334.4C264.275 335.15 264.617 336.233 264.617 337.65V338.375H262.017V337.475C262.017 336.875 261.9 336.442 261.667 336.175C261.434 335.892 261.092 335.75 260.642 335.75C259.725 335.75 259.267 336.308 259.267 337.425C259.267 338.058 259.434 338.65 259.767 339.2C260.117 339.75 260.742 340.417 261.642 341.2C262.792 342.2 263.584 343.108 264.017 343.925C264.45 344.742 264.667 345.7 264.667 346.8C264.667 348.233 264.309 349.333 263.592 350.1C262.892 350.867 261.867 351.25 260.517 351.25ZM266.244 348.35H268.894V351H266.244V348.35Z" fill="#434343"/>
<path d="M69.175 307H66.3V304.5H74.8V307H71.925V322H69.175V307ZM76.1314 304.5H78.8814V311.625H81.8314V304.5H84.5814V322H81.8314V314.125H78.8814V322H76.1314V304.5ZM86.6295 304.5H89.3795V322H86.6295V304.5ZM95.0141 322.25C93.6807 322.25 92.6724 321.875 91.9891 321.125C91.3057 320.358 90.9641 319.267 90.9641 317.85V316.85H93.5641V318.05C93.5641 319.183 94.0391 319.75 94.9891 319.75C95.4557 319.75 95.8057 319.617 96.0391 319.35C96.2891 319.067 96.4141 318.617 96.4141 318C96.4141 317.267 96.2474 316.625 95.9141 316.075C95.5807 315.508 94.9641 314.833 94.0641 314.05C92.9307 313.05 92.1391 312.15 91.6891 311.35C91.2391 310.533 91.0141 309.617 91.0141 308.6C91.0141 307.217 91.3641 306.15 92.0641 305.4C92.7641 304.633 93.7807 304.25 95.1141 304.25C96.4307 304.25 97.4224 304.633 98.0891 305.4C98.7724 306.15 99.1141 307.233 99.1141 308.65V309.375H96.5141V308.475C96.5141 307.875 96.3974 307.442 96.1641 307.175C95.9307 306.892 95.5891 306.75 95.1391 306.75C94.2224 306.75 93.7641 307.308 93.7641 308.425C93.7641 309.058 93.9307 309.65 94.2641 310.2C94.6141 310.75 95.2391 311.417 96.1391 312.2C97.2891 313.2 98.0807 314.108 98.5141 314.925C98.9474 315.742 99.1641 316.7 99.1641 317.8C99.1641 319.233 98.8057 320.333 98.0891 321.1C97.3891 321.867 96.3641 322.25 95.0141 322.25ZM104.745 304.5H107.495V322H104.745V304.5ZM113.129 322.25C111.796 322.25 110.788 321.875 110.104 321.125C109.421 320.358 109.079 319.267 109.079 317.85V316.85H111.679V318.05C111.679 319.183 112.154 319.75 113.104 319.75C113.571 319.75 113.921 319.617 114.154 319.35C114.404 319.067 114.529 318.617 114.529 318C114.529 317.267 114.363 316.625 114.029 316.075C113.696 315.508 113.079 314.833 112.179 314.05C111.046 313.05 110.254 312.15 109.804 311.35C109.354 310.533 109.129 309.617 109.129 308.6C109.129 307.217 109.479 306.15 110.179 305.4C110.879 304.633 111.896 304.25 113.229 304.25C114.546 304.25 115.538 304.633 116.204 305.4C116.888 306.15 117.229 307.233 117.229 308.65V309.375H114.629V308.475C114.629 307.875 114.513 307.442 114.279 307.175C114.046 306.892 113.704 306.75 113.254 306.75C112.338 306.75 111.879 307.308 111.879 308.425C111.879 309.058 112.046 309.65 112.379 310.2C112.729 310.75 113.354 311.417 114.254 312.2C115.404 313.2 116.196 314.108 116.629 314.925C117.063 315.742 117.279 316.7 117.279 317.8C117.279 319.233 116.921 320.333 116.204 321.1C115.504 321.867 114.479 322.25 113.129 322.25ZM124.985 304.5H128.71L131.56 322H128.81L128.31 318.525V318.575H125.185L124.685 322H122.135L124.985 304.5ZM127.985 316.2L126.76 307.55H126.71L125.51 316.2H127.985ZM136.248 304.5H138.898L140.123 317.95H140.173L141.473 304.5H144.473L145.773 317.95H145.823L147.048 304.5H149.423L147.648 322H144.223L142.973 310.2H142.923L141.673 322H138.023L136.248 304.5ZM150.814 304.5H158.314V307H153.564V311.625H157.339V314.125H153.564V319.5H158.314V322H150.814V304.5ZM159.896 304.5H164.046C165.463 304.5 166.496 304.833 167.146 305.5C167.796 306.15 168.121 307.158 168.121 308.525V309.225C168.121 310.125 167.971 310.858 167.671 311.425C167.388 311.992 166.946 312.4 166.346 312.65V312.7C167.713 313.167 168.396 314.383 168.396 316.35V317.85C168.396 319.2 168.038 320.233 167.321 320.95C166.621 321.65 165.588 322 164.221 322H159.896V304.5ZM163.721 311.625C164.271 311.625 164.679 311.483 164.946 311.2C165.229 310.917 165.371 310.442 165.371 309.775V308.8C165.371 308.167 165.254 307.708 165.021 307.425C164.804 307.142 164.454 307 163.971 307H162.646V311.625H163.721ZM164.221 319.5C164.704 319.5 165.063 319.375 165.296 319.125C165.529 318.858 165.646 318.408 165.646 317.775V316.25C165.646 315.45 165.504 314.9 165.221 314.6C164.954 314.283 164.504 314.125 163.871 314.125H162.646V319.5H164.221ZM173.579 322.25C172.245 322.25 171.237 321.875 170.554 321.125C169.87 320.358 169.529 319.267 169.529 317.85V316.85H172.129V318.05C172.129 319.183 172.604 319.75 173.554 319.75C174.02 319.75 174.37 319.617 174.604 319.35C174.854 319.067 174.979 318.617 174.979 318C174.979 317.267 174.812 316.625 174.479 316.075C174.145 315.508 173.529 314.833 172.629 314.05C171.495 313.05 170.704 312.15 170.254 311.35C169.804 310.533 169.579 309.617 169.579 308.6C169.579 307.217 169.929 306.15 170.629 305.4C171.329 304.633 172.345 304.25 173.679 304.25C174.995 304.25 175.987 304.633 176.654 305.4C177.337 306.15 177.679 307.233 177.679 308.65V309.375H175.079V308.475C175.079 307.875 174.962 307.442 174.729 307.175C174.495 306.892 174.154 306.75 173.704 306.75C172.787 306.75 172.329 307.308 172.329 308.425C172.329 309.058 172.495 309.65 172.829 310.2C173.179 310.75 173.804 311.417 174.704 312.2C175.854 313.2 176.645 314.108 177.079 314.925C177.512 315.742 177.729 316.7 177.729 317.8C177.729 319.233 177.37 320.333 176.654 321.1C175.954 321.867 174.929 322.25 173.579 322.25ZM179.305 304.5H182.055V322H179.305V304.5ZM186.265 307H183.39V304.5H191.89V307H189.015V322H186.265V307ZM193.221 304.5H200.721V307H195.971V311.625H199.746V314.125H195.971V319.5H200.721V322H193.221V304.5ZM205.657 304.5H208.307L209.532 317.95H209.582L210.882 304.5H213.882L215.182 317.95H215.232L216.457 304.5H218.832L217.057 322H213.632L212.382 310.2H212.332L211.082 322H207.432L205.657 304.5ZM220.223 304.5H222.973V311.625H225.923V304.5H228.673V322H225.923V314.125H222.973V322H220.223V304.5ZM230.721 304.5H238.221V307H233.471V311.625H237.246V314.125H233.471V319.5H238.221V322H230.721V304.5ZM239.803 304.5H243.878C245.295 304.5 246.328 304.833 246.978 305.5C247.628 306.15 247.953 307.158 247.953 308.525V309.6C247.953 311.417 247.353 312.567 246.153 313.05V313.1C246.82 313.3 247.287 313.708 247.553 314.325C247.837 314.942 247.978 315.767 247.978 316.8V319.875C247.978 320.375 247.995 320.783 248.028 321.1C248.062 321.4 248.145 321.7 248.278 322H245.478C245.378 321.717 245.312 321.45 245.278 321.2C245.245 320.95 245.228 320.5 245.228 319.85V316.65C245.228 315.85 245.095 315.292 244.828 314.975C244.578 314.658 244.137 314.5 243.503 314.5H242.553V322H239.803V304.5ZM243.553 312C244.103 312 244.512 311.858 244.778 311.575C245.062 311.292 245.203 310.817 245.203 310.15V308.8C245.203 308.167 245.087 307.708 244.853 307.425C244.637 307.142 244.287 307 243.803 307H242.553V312H243.553ZM249.886 304.5H257.386V307H252.636V311.625H256.411V314.125H252.636V319.5H257.386V322H249.886V304.5ZM265.497 314.55L262.172 304.5H265.097L266.972 310.925H267.022L268.897 304.5H271.572L268.247 314.55V322H265.497V314.55ZM276.347 322.25C274.997 322.25 273.963 321.867 273.247 321.1C272.53 320.333 272.172 319.25 272.172 317.85V308.65C272.172 307.25 272.53 306.167 273.247 305.4C273.963 304.633 274.997 304.25 276.347 304.25C277.697 304.25 278.73 304.633 279.447 305.4C280.163 306.167 280.522 307.25 280.522 308.65V317.85C280.522 319.25 280.163 320.333 279.447 321.1C278.73 321.867 277.697 322.25 276.347 322.25ZM276.347 319.75C277.297 319.75 277.772 319.175 277.772 318.025V308.475C277.772 307.325 277.297 306.75 276.347 306.75C275.397 306.75 274.922 307.325 274.922 308.475V318.025C274.922 319.175 275.397 319.75 276.347 319.75ZM286.381 322.25C285.048 322.25 284.031 321.875 283.331 321.125C282.631 320.358 282.281 319.267 282.281 317.85V304.5H285.031V318.05C285.031 318.65 285.148 319.083 285.381 319.35C285.631 319.617 285.981 319.75 286.431 319.75C286.881 319.75 287.223 319.617 287.456 319.35C287.706 319.083 287.831 318.65 287.831 318.05V304.5H290.481V317.85C290.481 319.267 290.131 320.358 289.431 321.125C288.731 321.875 287.715 322.25 286.381 322.25ZM300.319 322.25C299.002 322.25 297.994 321.875 297.294 321.125C296.611 320.375 296.269 319.317 296.269 317.95V308.55C296.269 307.183 296.611 306.125 297.294 305.375C297.994 304.625 299.002 304.25 300.319 304.25C301.636 304.25 302.636 304.625 303.319 305.375C304.019 306.125 304.369 307.183 304.369 308.55V310.4H301.769V308.375C301.769 307.292 301.311 306.75 300.394 306.75C299.477 306.75 299.019 307.292 299.019 308.375V318.15C299.019 319.217 299.477 319.75 300.394 319.75C301.311 319.75 301.769 319.217 301.769 318.15V315.475H304.369V317.95C304.369 319.317 304.019 320.375 303.319 321.125C302.636 321.875 301.636 322.25 300.319 322.25ZM308.139 304.5H311.864L314.714 322H311.964L311.464 318.525V318.575H308.339L307.839 322H305.289L308.139 304.5ZM311.139 316.2L309.914 307.55H309.864L308.664 316.2H311.139ZM316.048 304.5H319.498L322.173 314.975H322.223V304.5H324.673V322H321.848L318.548 309.225H318.498V322H316.048V304.5ZM334.596 322.25C333.28 322.25 332.271 321.875 331.571 321.125C330.888 320.375 330.546 319.317 330.546 317.95V308.55C330.546 307.183 330.888 306.125 331.571 305.375C332.271 304.625 333.28 304.25 334.596 304.25C335.913 304.25 336.913 304.625 337.596 305.375C338.296 306.125 338.646 307.183 338.646 308.55V310.4H336.046V308.375C336.046 307.292 335.588 306.75 334.671 306.75C333.755 306.75 333.296 307.292 333.296 308.375V318.15C333.296 319.217 333.755 319.75 334.671 319.75C335.588 319.75 336.046 319.217 336.046 318.15V315.475H338.646V317.95C338.646 319.317 338.296 320.375 337.596 321.125C336.913 321.875 335.913 322.25 334.596 322.25ZM340.292 304.5H343.042V311.625H345.992V304.5H348.742V322H345.992V314.125H343.042V322H340.292V304.5ZM350.79 304.5H358.29V307H353.54V311.625H357.315V314.125H353.54V319.5H358.29V322H350.79V304.5ZM363.747 322.25C362.43 322.25 361.422 321.875 360.722 321.125C360.038 320.375 359.697 319.317 359.697 317.95V308.55C359.697 307.183 360.038 306.125 360.722 305.375C361.422 304.625 362.43 304.25 363.747 304.25C365.063 304.25 366.063 304.625 366.747 305.375C367.447 306.125 367.797 307.183 367.797 308.55V310.4H365.197V308.375C365.197 307.292 364.738 306.75 363.822 306.75C362.905 306.75 362.447 307.292 362.447 308.375V318.15C362.447 319.217 362.905 319.75 363.822 319.75C364.738 319.75 365.197 319.217 365.197 318.15V315.475H367.797V317.95C367.797 319.317 367.447 320.375 366.747 321.125C366.063 321.875 365.063 322.25 363.747 322.25ZM369.442 304.5H372.192V311.875L375.692 304.5H378.442L375.167 310.925L378.492 322H375.617L373.292 314.2L372.192 316.425V322H369.442V304.5ZM383.797 304.5H391.072V307H386.547V311.875H390.097V314.375H386.547V322H383.797V304.5ZM393.711 304.5H397.436L400.286 322H397.536L397.036 318.525V318.575H393.911L393.411 322H390.861L393.711 304.5ZM396.711 316.2L395.486 307.55H395.436L394.236 316.2H396.711ZM405.446 322.25C404.129 322.25 403.121 321.875 402.421 321.125C401.738 320.375 401.396 319.317 401.396 317.95V308.55C401.396 307.183 401.738 306.125 402.421 305.375C403.121 304.625 404.129 304.25 405.446 304.25C406.763 304.25 407.763 304.625 408.446 305.375C409.146 306.125 409.496 307.183 409.496 308.55V310.4H406.896V308.375C406.896 307.292 406.438 306.75 405.521 306.75C404.604 306.75 404.146 307.292 404.146 308.375V318.15C404.146 319.217 404.604 319.75 405.521 319.75C406.438 319.75 406.896 319.217 406.896 318.15V315.475H409.496V317.95C409.496 319.317 409.146 320.375 408.446 321.125C407.763 321.875 406.763 322.25 405.446 322.25ZM411.141 304.5H418.641V307H413.891V311.625H417.666V314.125H413.891V319.5H418.641V322H411.141V304.5ZM420.223 304.5H424.373C425.79 304.5 426.823 304.833 427.473 305.5C428.123 306.15 428.448 307.158 428.448 308.525V309.225C428.448 310.125 428.298 310.858 427.998 311.425C427.715 311.992 427.273 312.4 426.673 312.65V312.7C428.04 313.167 428.723 314.383 428.723 316.35V317.85C428.723 319.2 428.365 320.233 427.648 320.95C426.948 321.65 425.915 322 424.548 322H420.223V304.5ZM424.048 311.625C424.598 311.625 425.007 311.483 425.273 311.2C425.557 310.917 425.698 310.442 425.698 309.775V308.8C425.698 308.167 425.582 307.708 425.348 307.425C425.132 307.142 424.782 307 424.298 307H422.973V311.625H424.048ZM424.548 319.5C425.032 319.5 425.39 319.375 425.623 319.125C425.857 318.858 425.973 318.408 425.973 317.775V316.25C425.973 315.45 425.832 314.9 425.548 314.6C425.282 314.283 424.832 314.125 424.198 314.125H422.973V319.5H424.548ZM434.306 322.25C432.956 322.25 431.922 321.867 431.206 321.1C430.489 320.333 430.131 319.25 430.131 317.85V308.65C430.131 307.25 430.489 306.167 431.206 305.4C431.922 304.633 432.956 304.25 434.306 304.25C435.656 304.25 436.689 304.633 437.406 305.4C438.122 306.167 438.481 307.25 438.481 308.65V317.85C438.481 319.25 438.122 320.333 437.406 321.1C436.689 321.867 435.656 322.25 434.306 322.25ZM434.306 319.75C435.256 319.75 435.731 319.175 435.731 318.025V308.475C435.731 307.325 435.256 306.75 434.306 306.75C433.356 306.75 432.881 307.325 432.881 308.475V318.025C432.881 319.175 433.356 319.75 434.306 319.75ZM444.315 322.25C442.965 322.25 441.932 321.867 441.215 321.1C440.499 320.333 440.14 319.25 440.14 317.85V308.65C440.14 307.25 440.499 306.167 441.215 305.4C441.932 304.633 442.965 304.25 444.315 304.25C445.665 304.25 446.699 304.633 447.415 305.4C448.132 306.167 448.49 307.25 448.49 308.65V317.85C448.49 319.25 448.132 320.333 447.415 321.1C446.699 321.867 445.665 322.25 444.315 322.25ZM444.315 319.75C445.265 319.75 445.74 319.175 445.74 318.025V308.475C445.74 307.325 445.265 306.75 444.315 306.75C443.365 306.75 442.89 307.325 442.89 308.475V318.025C442.89 319.175 443.365 319.75 444.315 319.75ZM450.35 304.5H453.1V311.875L456.6 304.5H459.35L456.075 310.925L459.4 322H456.525L454.2 314.2L453.1 316.425V322H450.35V304.5ZM460.627 304.5H463.427L462.752 310.15H461.277L460.627 304.5ZM468.989 322.25C467.655 322.25 466.647 321.875 465.964 321.125C465.28 320.358 464.939 319.267 464.939 317.85V316.85H467.539V318.05C467.539 319.183 468.014 319.75 468.964 319.75C469.43 319.75 469.78 319.617 470.014 319.35C470.264 319.067 470.389 318.617 470.389 318C470.389 317.267 470.222 316.625 469.889 316.075C469.555 315.508 468.939 314.833 468.039 314.05C466.905 313.05 466.114 312.15 465.664 311.35C465.214 310.533 464.989 309.617 464.989 308.6C464.989 307.217 465.339 306.15 466.039 305.4C466.739 304.633 467.755 304.25 469.089 304.25C470.405 304.25 471.397 304.633 472.064 305.4C472.747 306.15 473.089 307.233 473.089 308.65V309.375H470.489V308.475C470.489 307.875 470.372 307.442 470.139 307.175C469.905 306.892 469.564 306.75 469.114 306.75C468.197 306.75 467.739 307.308 467.739 308.425C467.739 309.058 467.905 309.65 468.239 310.2C468.589 310.75 469.214 311.417 470.114 312.2C471.264 313.2 472.055 314.108 472.489 314.925C472.922 315.742 473.139 316.7 473.139 317.8C473.139 319.233 472.78 320.333 472.064 321.1C471.364 321.867 470.339 322.25 468.989 322.25Z" fill="#434343"/>
<g style="mix-blend-mode:overlay">
<path fill-rule="evenodd" clip-rule="evenodd" d="M81.9041 153.765L441.335 90.3873L443.072 100.235L83.6406 163.613L81.9041 153.765Z" fill="#E2F4F7"/>
</g>
<defs>
<filter id="filter0_d_195_66" x="102.223" y="120.89" width="337.726" height="92.4199" filterUnits="userSpaceOnUse" color-interpolation-filters="sRGB">
<feFlood flood-opacity="0" result="BackgroundImageFix"/>
<feColorMatrix in="SourceAlpha" type="matrix" values="0 0 0 0 0 0 0 0 0 0 0 0 0 0 0 0 0 0 127 0" result="hardAlpha"/>
<feOffset dy="4"/>
<feGaussianBlur stdDeviation="2"/>
<feComposite in2="hardAlpha" operator="out"/>
<feColorMatrix type="matrix" values="0 0 0 0 0 0 0 0 0 0 0 0 0 0 0 0 0 0 0.25 0"/>
<feBlend mode="normal" in2="BackgroundImageFix" result="effect1_dropShadow_195_66"/>
<feBlend mode="normal" in="SourceGraphic" in2="effect1_dropShadow_195_66" result="shape"/>
</filter>
<filter id="filter1_d_195_66" x="108.308" y="58.39" width="326.925" height="60.52" filterUnits="userSpaceOnUse" color-interpolation-filters="sRGB">
<feFlood flood-opacity="0" result="BackgroundImageFix"/>
<feColorMatrix in="SourceAlpha" type="matrix" values="0 0 0 0 0 0 0 0 0 0 0 0 0 0 0 0 0 0 127 0" result="hardAlpha"/>
<feOffset dy="4"/>
<feGaussianBlur stdDeviation="2"/>
<feComposite in2="hardAlpha" operator="out"/>
<feColorMatrix type="matrix" values="0 0 0 0 0 0 0 0 0 0 0 0 0 0 0 0 0 0 0.4 0"/>
<feBlend mode="normal" in2="BackgroundImageFix" result="effect1_dropShadow_195_66"/>
<feBlend mode="normal" in="SourceGraphic" in2="effect1_dropShadow_195_66" result="shape"/>
</filter>
<linearGradient id="paint0_linear_195_66" x1="385" y1="0" x2="385" y2="400" gradientUnits="userSpaceOnUse">
<stop stop-color="#BCD7EB"/>
<stop offset="0.9999" stop-color="#D4DAD5" stop-opacity="0.0260417"/>
<stop offset="1" stop-color="#D9D9D9" stop-opacity="0"/>
<stop offset="1" stop-color="#D9D9D9" stop-opacity="0"/>
</linearGradient>
<linearGradient id="paint1_linear_195_66" x1="500" y1="0" x2="500" y2="400" gradientUnits="userSpaceOnUse">
<stop stop-color="#BCD7EB"/>
<stop offset="0.9999" stop-color="#D4DAD5" stop-opacity="0.0260417"/>
<stop offset="1" stop-color="#D9D9D9" stop-opacity="0"/>
<stop offset="1" stop-color="#D9D9D9" stop-opacity="0"/>
</linearGradient>
<linearGradient id="paint2_linear_195_66" x1="270" y1="0" x2="270" y2="400" gradientUnits="userSpaceOnUse">
<stop stop-color="#BCD7EB"/>
<stop offset="0.9999" stop-color="#D4DAD5" stop-opacity="0.0260417"/>
<stop offset="1" stop-color="#D9D9D9" stop-opacity="0"/>
<stop offset="1" stop-color="#D9D9D9" stop-opacity="0"/>
</linearGradient>
<linearGradient id="paint3_linear_195_66" x1="155" y1="0" x2="155" y2="400" gradientUnits="userSpaceOnUse">
<stop stop-color="#BCD7EB"/>
<stop offset="0.9999" stop-color="#D4DAD5" stop-opacity="0.0260417"/>
<stop offset="1" stop-color="#D9D9D9" stop-opacity="0"/>
<stop offset="1" stop-color="#D9D9D9" stop-opacity="0"/>
</linearGradient>
<linearGradient id="paint4_linear_195_66" x1="40" y1="0" x2="40" y2="400" gradientUnits="userSpaceOnUse">
<stop stop-color="#BCD7EB"/>
<stop offset="0.9999" stop-color="#D4DAD5" stop-opacity="0.0260417"/>
<stop offset="1" stop-color="#D9D9D9" stop-opacity="0"/>
<stop offset="1" stop-color="#D9D9D9" stop-opacity="0"/>
</linearGradient>
</defs>
</svg>
