<svg width="541" height="401" viewBox="0 0 541 401" fill="none" xmlns="http://www.w3.org/2000/svg">
<rect x="1" y="1.00024" width="540" height="400" fill="#1F252F"/>
<line y1="-0.25" x2="318.905" y2="-0.25" transform="matrix(0.591722 -0.806142 0.958814 0.284036 238.792 357.845)" stroke="white" stroke-opacity="0.2" stroke-width="0.5"/>
<rect x="238.588" y="357.58" width="0.610244" height="0.387677" fill="#FF4D80"/>
<line y1="-0.25" x2="318.905" y2="-0.25" transform="matrix(0.591722 -0.806142 0.958814 0.284036 243.267 281.343)" stroke="white" stroke-opacity="0.5" stroke-width="0.5"/>
<rect x="243.063" y="281.079" width="0.610244" height="0.387677" fill="#FF4D80"/>
<line y1="-0.25" x2="318.905" y2="-0.25" transform="matrix(0.591722 -0.806142 0.958814 0.284036 120.608 327.865)" stroke="white" stroke-opacity="0.2" stroke-width="0.5"/>
<rect x="120.404" y="327.6" width="0.610244" height="0.387677" fill="#FF4D80"/>
<line y1="-0.25" x2="318.905" y2="-0.25" transform="matrix(0.591722 -0.806142 0.958814 0.284036 88.6718 360.171)" stroke="white" stroke-opacity="0.2" stroke-width="0.5"/>
<rect x="88.4683" y="359.906" width="0.610244" height="0.387677" fill="#FF4D80"/>
<line y1="-0.25" x2="318.905" y2="-0.25" transform="matrix(0.591722 -0.806142 0.958814 0.284036 99.8596 337.944)" stroke="white" stroke-opacity="0.2" stroke-width="0.5"/>
<rect x="99.6561" y="337.679" width="0.610244" height="0.387677" fill="#FF4D80"/>
<line y1="-0.25" x2="318.905" y2="-0.25" transform="matrix(0.591722 -0.806142 0.958814 0.284036 112.064 284.574)" stroke="white" stroke-opacity="0.2" stroke-width="0.5"/>
<rect x="111.861" y="284.309" width="0.610244" height="0.387677" fill="#FF4D80"/>
<line y1="-0.25" x2="318.905" y2="-0.25" transform="matrix(0.591722 -0.806142 0.958814 0.284036 1.20337 400.877)" stroke="white" stroke-opacity="0.2" stroke-width="0.5"/>
<rect x="1" y="400.612" width="0.610244" height="0.387677" fill="#FF4D80"/>
<line y1="-0.25" x2="318.905" y2="-0.25" transform="matrix(0.591722 -0.806142 0.958814 0.284036 35.5805 342.338)" stroke="white" stroke-opacity="0.2" stroke-width="0.5"/>
<rect x="35.3771" y="342.073" width="0.610244" height="0.387677" fill="#FF4D80"/>
<line y1="-0.25" x2="318.905" y2="-0.25" transform="matrix(0.591722 -0.806142 0.958814 0.284036 1.20337 312.616)" stroke="white" stroke-opacity="0.2" stroke-width="0.5"/>
<rect x="1" y="312.351" width="0.610244" height="0.387677" fill="#FF4D80"/>
<line y1="-0.25" x2="318.905" y2="-0.25" transform="matrix(0.591722 -0.806142 0.958814 0.284036 22.9688 266.094)" stroke="white" stroke-opacity="0.2" stroke-width="0.5"/>
<rect x="22.7654" y="265.83" width="0.610244" height="0.387677" fill="#FF4D80"/>
<line y1="-0.25" x2="318.905" y2="-0.25" transform="matrix(0.591722 -0.806142 0.958814 0.284036 316.7 375.29)" stroke="white" stroke-opacity="0.2" stroke-width="0.5"/>
<rect x="316.496" y="375.026" width="0.610244" height="0.387677" fill="#FF4D80"/>
<line y1="-0.25" x2="318.905" y2="-0.25" transform="matrix(0.591722 -0.806142 0.958814 0.284036 277.644 337.556)" stroke="white" stroke-opacity="0.2" stroke-width="0.5"/>
<rect x="277.44" y="337.292" width="0.610244" height="0.387677" fill="#FF4D80"/>
<line y1="-0.25" x2="318.905" y2="-0.25" transform="matrix(0.591722 -0.806142 0.958814 0.284036 149.493 346.731)" stroke="white" stroke-opacity="0.2" stroke-width="0.5"/>
<rect x="149.289" y="346.467" width="0.610244" height="0.387677" fill="#FF4D80"/>
<line y1="-0.25" x2="318.905" y2="-0.25" transform="matrix(0.591722 -0.806142 0.958814 0.284036 263.608 265.319)" stroke="white" stroke-opacity="0.2" stroke-width="0.5"/>
<rect x="263.405" y="265.054" width="0.610244" height="0.387677" fill="#FF4D80"/>
<line y1="-0.25" x2="318.905" y2="-0.25" transform="matrix(0.591722 -0.806142 0.958814 0.284036 291.68 302.278)" stroke="white" stroke-opacity="0.2" stroke-width="0.5"/>
<rect x="291.476" y="302.013" width="0.610244" height="0.387677" fill="#FF4D80"/>
<line y1="-0.25" x2="318.905" y2="-0.25" transform="matrix(0.591722 -0.806142 0.958814 0.284036 112.675 348.799)" stroke="white" stroke-opacity="0.2" stroke-width="0.5"/>
<rect x="112.471" y="348.534" width="0.610244" height="0.387677" fill="#4EAAFF"/>
<line y1="-0.25" x2="318.905" y2="-0.25" transform="matrix(0.591722 -0.806142 0.958814 0.284036 49.8195 309.385)" stroke="white" stroke-opacity="0.2" stroke-width="0.5"/>
<rect x="49.6161" y="309.121" width="0.610244" height="0.387677" fill="#4EAAFF"/>
<line y1="-0.25" x2="318.905" y2="-0.25" transform="matrix(0.591722 -0.806142 0.958814 0.284036 1.20337 272.297)" stroke="white" stroke-opacity="0.2" stroke-width="0.5"/>
<rect x="1" y="272.033" width="0.610244" height="0.387677" fill="#4EAAFF"/>
<line y1="-0.25" x2="318.905" y2="-0.25" transform="matrix(0.591722 -0.806142 0.958814 0.284036 88.6718 374.903)" stroke="white" stroke-opacity="0.2" stroke-width="0.5"/>
<rect x="88.4683" y="374.638" width="0.610244" height="0.387677" fill="#4EAAFF"/>
<line y1="-0.25" x2="318.905" y2="-0.25" transform="matrix(0.591722 -0.806142 0.958814 0.284036 1.81366 366.761)" stroke="white" stroke-opacity="0.2" stroke-width="0.5"/>
<rect x="1.61029" y="366.497" width="0.610244" height="0.387677" fill="#4EAAFF"/>
<line y1="-0.25" x2="318.905" y2="-0.25" transform="matrix(0.591722 -0.806142 0.958814 0.284036 352.297 352.805)" stroke="white" stroke-opacity="0.2" stroke-width="0.5"/>
<rect x="352.094" y="352.54" width="0.610244" height="0.387677" fill="#4EAAFF"/>
<line y1="-0.25" x2="318.905" y2="-0.25" transform="matrix(0.591722 -0.806142 0.958814 0.284036 154.578 363.014)" stroke="white" stroke-opacity="0.2" stroke-width="0.5"/>
<rect x="154.375" y="362.749" width="0.610244" height="0.387677" fill="#4EAAFF"/>
<line y1="-0.25" x2="318.905" y2="-0.25" transform="matrix(0.591722 -0.806142 0.958814 0.284036 215.196 323.471)" stroke="white" stroke-opacity="0.5" stroke-width="0.5"/>
<rect x="214.992" y="323.206" width="0.610244" height="0.387677" fill="#4EAAFF"/>
<line y1="-0.25" x2="318.905" y2="-0.25" transform="matrix(0.591722 -0.806142 0.958814 0.284036 207.263 346.344)" stroke="white" stroke-opacity="0.2" stroke-width="0.5"/>
<rect x="207.059" y="346.079" width="0.610244" height="0.387677" fill="#4EAAFF"/>
<line y1="-0.25" x2="318.905" y2="-0.25" transform="matrix(0.591722 -0.806142 0.958814 0.284036 336.634 266.482)" stroke="white" stroke-opacity="0.2" stroke-width="0.5"/>
<rect x="336.431" y="266.218" width="0.610244" height="0.387677" fill="#4EAAFF"/>
<line y1="-0.25" x2="318.905" y2="-0.25" transform="matrix(0.591722 -0.806142 0.958814 0.284036 71.1781 258.083)" stroke="white" stroke-opacity="0.2" stroke-width="0.5"/>
<rect x="70.9747" y="257.818" width="0.610244" height="0.387677" fill="#4EAAFF"/>
<line y1="-0.25" x2="318.905" y2="-0.25" transform="matrix(0.591722 -0.806142 0.958814 0.284036 183.463 266.482)" stroke="white" stroke-opacity="0.2" stroke-width="0.5"/>
<rect x="183.26" y="266.218" width="0.610244" height="0.387677" fill="#4EAAFF"/>
<line y1="-0.25" x2="318.905" y2="-0.25" transform="matrix(0.591722 -0.806142 0.958814 0.284036 308.766 312.874)" stroke="white" stroke-opacity="0.2" stroke-width="0.5"/>
<rect x="308.563" y="312.61" width="0.610244" height="0.387677" fill="#4EAAFF"/>
<line y1="-0.25" x2="318.905" y2="-0.25" transform="matrix(0.591722 -0.806142 0.958814 0.284036 96.4015 389.505)" stroke="white" stroke-opacity="0.2" stroke-width="0.5"/>
<rect x="96.1981" y="389.24" width="0.610244" height="0.387677" fill="#B8F2E6"/>
<line y1="-0.25" x2="318.905" y2="-0.25" transform="matrix(0.591722 -0.806142 0.958814 0.284036 154.578 374.903)" stroke="white" stroke-opacity="0.5" stroke-width="0.5"/>
<rect x="154.375" y="374.638" width="0.610244" height="0.387677" fill="#B8F2E6"/>
<line y1="-0.25" x2="318.905" y2="-0.25" transform="matrix(0.591722 -0.806142 0.958814 0.284036 163.732 342.338)" stroke="white" stroke-opacity="0.2" stroke-width="0.5"/>
<rect x="163.528" y="342.073" width="0.610244" height="0.387677" fill="#B8F2E6"/>
<line y1="-0.25" x2="318.905" y2="-0.25" transform="matrix(0.591722 -0.806142 0.958814 0.284036 189.769 284.186)" stroke="white" stroke-opacity="0.2" stroke-width="0.5"/>
<rect x="189.565" y="283.921" width="0.610244" height="0.387677" fill="#B8F2E6"/>
<line y1="-0.25" x2="318.905" y2="-0.25" transform="matrix(0.591722 -0.806142 0.958814 0.284036 267.473 326.831)" stroke="white" stroke-opacity="0.2" stroke-width="0.5"/>
<rect x="267.27" y="326.566" width="0.610244" height="0.387677" fill="#B8F2E6"/>
<line y1="-0.25" x2="318.905" y2="-0.25" transform="matrix(0.591722 -0.806142 0.958814 0.284036 254.658 258.083)" stroke="white" stroke-opacity="0.2" stroke-width="0.5"/>
<rect x="254.455" y="257.818" width="0.610244" height="0.387677" fill="#B8F2E6"/>
<line y1="-0.25" x2="318.905" y2="-0.25" transform="matrix(0.591722 -0.806142 0.958814 0.284036 292.493 277.466)" stroke="white" stroke-opacity="0.2" stroke-width="0.5"/>
<rect x="292.29" y="277.202" width="0.610244" height="0.387677" fill="#B8F2E6"/>
<line y1="-0.25" x2="318.905" y2="-0.25" transform="matrix(0.591722 -0.806142 0.958814 0.284036 350.06 320.369)" stroke="white" stroke-opacity="0.2" stroke-width="0.5"/>
<rect x="349.856" y="320.105" width="0.610244" height="0.387677" fill="#B8F2E6"/>
<line y1="-0.25" x2="318.905" y2="-0.25" transform="matrix(0.591722 -0.806142 0.958814 0.284036 94.7742 268.938)" stroke="white" stroke-opacity="0.2" stroke-width="0.5"/>
<rect x="94.5708" y="268.673" width="0.610244" height="0.387677" fill="#A5D7CC"/>
<path d="M103 252V229.74H94.3905V227.5H114.2V229.74H105.59V252H103ZM127.193 233.45C128.686 233.45 129.993 233.742 131.113 234.325C132.256 234.885 133.143 235.749 133.773 236.915C134.426 238.082 134.753 239.552 134.753 241.325V252H132.268V241.57C132.268 239.634 131.778 238.175 130.798 237.195C129.841 236.192 128.488 235.69 126.738 235.69C125.431 235.69 124.288 235.959 123.308 236.495C122.351 237.009 121.605 237.767 121.068 238.77C120.555 239.75 120.298 240.94 120.298 242.34V252H117.813V226.03H120.298V238.665L119.808 237.72C120.391 236.39 121.325 235.352 122.608 234.605C123.891 233.835 125.42 233.45 127.193 233.45ZM141.465 252V233.625H143.95V252H141.465ZM142.725 229.565C142.212 229.565 141.78 229.39 141.43 229.04C141.08 228.69 140.905 228.27 140.905 227.78C140.905 227.29 141.08 226.882 141.43 226.555C141.78 226.205 142.212 226.03 142.725 226.03C143.239 226.03 143.67 226.194 144.02 226.52C144.37 226.847 144.545 227.255 144.545 227.745C144.545 228.259 144.37 228.69 144.02 229.04C143.694 229.39 143.262 229.565 142.725 229.565ZM155.8 252.175C154.283 252.175 152.848 251.965 151.495 251.545C150.142 251.102 149.08 250.554 148.31 249.9L149.43 247.94C150.177 248.5 151.133 248.99 152.3 249.41C153.467 249.807 154.692 250.005 155.975 250.005C157.725 250.005 158.985 249.737 159.755 249.2C160.525 248.64 160.91 247.905 160.91 246.995C160.91 246.319 160.688 245.794 160.245 245.42C159.825 245.024 159.265 244.732 158.565 244.545C157.865 244.335 157.083 244.16 156.22 244.02C155.357 243.88 154.493 243.717 153.63 243.53C152.79 243.344 152.02 243.075 151.32 242.725C150.62 242.352 150.048 241.85 149.605 241.22C149.185 240.59 148.975 239.75 148.975 238.7C148.975 237.697 149.255 236.799 149.815 236.005C150.375 235.212 151.192 234.594 152.265 234.15C153.362 233.684 154.692 233.45 156.255 233.45C157.445 233.45 158.635 233.614 159.825 233.94C161.015 234.244 161.995 234.652 162.765 235.165L161.68 237.16C160.863 236.6 159.988 236.204 159.055 235.97C158.122 235.714 157.188 235.585 156.255 235.585C154.598 235.585 153.373 235.877 152.58 236.46C151.81 237.02 151.425 237.744 151.425 238.63C151.425 239.33 151.635 239.879 152.055 240.275C152.498 240.672 153.07 240.987 153.77 241.22C154.493 241.43 155.275 241.605 156.115 241.745C156.978 241.885 157.83 242.06 158.67 242.27C159.533 242.457 160.315 242.725 161.015 243.075C161.738 243.402 162.31 243.88 162.73 244.51C163.173 245.117 163.395 245.922 163.395 246.925C163.395 247.999 163.092 248.932 162.485 249.725C161.902 250.495 161.038 251.102 159.895 251.545C158.775 251.965 157.41 252.175 155.8 252.175ZM177.115 252V233.625H179.6V252H177.115ZM178.375 229.565C177.862 229.565 177.43 229.39 177.08 229.04C176.73 228.69 176.555 228.27 176.555 227.78C176.555 227.29 176.73 226.882 177.08 226.555C177.43 226.205 177.862 226.03 178.375 226.03C178.888 226.03 179.32 226.194 179.67 226.52C180.02 226.847 180.195 227.255 180.195 227.745C180.195 228.259 180.02 228.69 179.67 229.04C179.343 229.39 178.912 229.565 178.375 229.565ZM191.449 252.175C189.933 252.175 188.498 251.965 187.144 251.545C185.791 251.102 184.729 250.554 183.959 249.9L185.079 247.94C185.826 248.5 186.783 248.99 187.949 249.41C189.116 249.807 190.341 250.005 191.624 250.005C193.374 250.005 194.634 249.737 195.404 249.2C196.174 248.64 196.559 247.905 196.559 246.995C196.559 246.319 196.338 245.794 195.894 245.42C195.474 245.024 194.914 244.732 194.214 244.545C193.514 244.335 192.733 244.16 191.869 244.02C191.006 243.88 190.143 243.717 189.279 243.53C188.439 243.344 187.669 243.075 186.969 242.725C186.269 242.352 185.698 241.85 185.254 241.22C184.834 240.59 184.624 239.75 184.624 238.7C184.624 237.697 184.904 236.799 185.464 236.005C186.024 235.212 186.841 234.594 187.914 234.15C189.011 233.684 190.341 233.45 191.904 233.45C193.094 233.45 194.284 233.614 195.474 233.94C196.664 234.244 197.644 234.652 198.414 235.165L197.329 237.16C196.513 236.6 195.638 236.204 194.704 235.97C193.771 235.714 192.838 235.585 191.904 235.585C190.248 235.585 189.023 235.877 188.229 236.46C187.459 237.02 187.074 237.744 187.074 238.63C187.074 239.33 187.284 239.879 187.704 240.275C188.148 240.672 188.719 240.987 189.419 241.22C190.143 241.43 190.924 241.605 191.764 241.745C192.628 241.885 193.479 242.06 194.319 242.27C195.183 242.457 195.964 242.725 196.664 243.075C197.388 243.402 197.959 243.88 198.379 244.51C198.823 245.117 199.044 245.922 199.044 246.925C199.044 247.999 198.741 248.932 198.134 249.725C197.551 250.495 196.688 251.102 195.544 251.545C194.424 251.965 193.059 252.175 191.449 252.175ZM235.724 233.45C237.218 233.45 238.513 233.742 239.609 234.325C240.729 234.885 241.593 235.749 242.199 236.915C242.829 238.082 243.144 239.552 243.144 241.325V252H240.659V241.57C240.659 239.634 240.193 238.175 239.259 237.195C238.349 236.192 237.054 235.69 235.374 235.69C234.114 235.69 233.018 235.959 232.084 236.495C231.174 237.009 230.463 237.767 229.949 238.77C229.459 239.75 229.214 240.94 229.214 242.34V252H226.729V241.57C226.729 239.634 226.263 238.175 225.329 237.195C224.396 236.192 223.089 235.69 221.409 235.69C220.173 235.69 219.088 235.959 218.154 236.495C217.221 237.009 216.498 237.767 215.984 238.77C215.494 239.75 215.249 240.94 215.249 242.34V252H212.764V233.625H215.144V238.595L214.759 237.72C215.319 236.39 216.218 235.352 217.454 234.605C218.714 233.835 220.196 233.45 221.899 233.45C223.696 233.45 225.224 233.905 226.484 234.815C227.744 235.702 228.561 237.044 228.934 238.84L227.954 238.455C228.491 236.962 229.436 235.76 230.789 234.85C232.166 233.917 233.811 233.45 235.724 233.45ZM249.682 258.965C248.818 258.965 247.99 258.825 247.197 258.545C246.427 258.265 245.762 257.845 245.202 257.285L246.357 255.43C246.823 255.874 247.325 256.212 247.862 256.445C248.422 256.702 249.04 256.83 249.717 256.83C250.533 256.83 251.233 256.597 251.817 256.13C252.423 255.687 252.995 254.894 253.532 253.75L254.722 251.055L255.002 250.67L262.562 233.625H265.012L255.807 254.205C255.293 255.395 254.722 256.34 254.092 257.04C253.485 257.74 252.82 258.23 252.097 258.51C251.373 258.814 250.568 258.965 249.682 258.965ZM254.582 252.525L246.112 233.625H248.702L256.192 250.495L254.582 252.525ZM278.197 252V227.5H287.367C289.443 227.5 291.228 227.839 292.722 228.515C294.215 229.169 295.358 230.125 296.152 231.385C296.968 232.622 297.377 234.127 297.377 235.9C297.377 237.627 296.968 239.12 296.152 240.38C295.358 241.617 294.215 242.574 292.722 243.25C291.228 243.927 289.443 244.265 287.367 244.265H279.632L280.787 243.04V252H278.197ZM280.787 243.25L279.632 241.99H287.297C289.747 241.99 291.602 241.465 292.862 240.415C294.145 239.342 294.787 237.837 294.787 235.9C294.787 233.94 294.145 232.424 292.862 231.35C291.602 230.277 289.747 229.74 287.297 229.74H279.632L280.787 228.515V243.25ZM309.839 252.175C308.066 252.175 306.468 251.779 305.044 250.985C303.644 250.169 302.536 249.06 301.719 247.66C300.903 246.237 300.494 244.615 300.494 242.795C300.494 240.952 300.903 239.33 301.719 237.93C302.536 236.53 303.644 235.434 305.044 234.64C306.444 233.847 308.043 233.45 309.839 233.45C311.659 233.45 313.269 233.847 314.669 234.64C316.093 235.434 317.201 236.53 317.994 237.93C318.811 239.33 319.219 240.952 319.219 242.795C319.219 244.615 318.811 246.237 317.994 247.66C317.201 249.06 316.093 250.169 314.669 250.985C313.246 251.779 311.636 252.175 309.839 252.175ZM309.839 249.97C311.169 249.97 312.348 249.679 313.374 249.095C314.401 248.489 315.206 247.649 315.789 246.575C316.396 245.479 316.699 244.219 316.699 242.795C316.699 241.349 316.396 240.089 315.789 239.015C315.206 237.942 314.401 237.114 313.374 236.53C312.348 235.924 311.181 235.62 309.874 235.62C308.568 235.62 307.401 235.924 306.374 236.53C305.348 237.114 304.531 237.942 303.924 239.015C303.318 240.089 303.014 241.349 303.014 242.795C303.014 244.219 303.318 245.479 303.924 246.575C304.531 247.649 305.348 248.489 306.374 249.095C307.401 249.679 308.556 249.97 309.839 249.97ZM324.293 252V233.625H326.673V238.63L326.428 237.755C326.941 236.355 327.804 235.294 329.018 234.57C330.231 233.824 331.736 233.45 333.533 233.45V235.865C333.439 235.865 333.346 235.865 333.253 235.865C333.159 235.842 333.066 235.83 332.973 235.83C331.036 235.83 329.519 236.425 328.423 237.615C327.326 238.782 326.778 240.45 326.778 242.62V252H324.293ZM344.663 252.175C342.937 252.175 341.607 251.709 340.673 250.775C339.74 249.842 339.273 248.524 339.273 246.82V229.565H341.758V246.68C341.758 247.754 342.027 248.582 342.563 249.165C343.123 249.749 343.917 250.04 344.943 250.04C346.04 250.04 346.95 249.725 347.673 249.095L348.548 250.88C348.058 251.324 347.463 251.65 346.763 251.86C346.087 252.07 345.387 252.175 344.663 252.175ZM335.983 235.69V233.625H347.358V235.69H335.983ZM353.492 252V231.315C353.492 229.682 353.97 228.364 354.927 227.36C355.884 226.357 357.26 225.855 359.057 225.855C359.757 225.855 360.434 225.949 361.087 226.135C361.74 226.322 362.289 226.614 362.732 227.01L361.892 228.865C361.542 228.562 361.134 228.34 360.667 228.2C360.2 228.037 359.699 227.955 359.162 227.955C358.112 227.955 357.307 228.247 356.747 228.83C356.187 229.414 355.907 230.277 355.907 231.42V234.22L355.977 235.375V252H353.492ZM350.202 235.69V233.625H361.577V235.69H350.202ZM372.115 252.175C370.341 252.175 368.743 251.779 367.32 250.985C365.92 250.169 364.811 249.06 363.995 247.66C363.178 246.237 362.77 244.615 362.77 242.795C362.77 240.952 363.178 239.33 363.995 237.93C364.811 236.53 365.92 235.434 367.32 234.64C368.72 233.847 370.318 233.45 372.115 233.45C373.935 233.45 375.545 233.847 376.945 234.64C378.368 235.434 379.476 236.53 380.27 237.93C381.086 239.33 381.495 240.952 381.495 242.795C381.495 244.615 381.086 246.237 380.27 247.66C379.476 249.06 378.368 250.169 376.945 250.985C375.521 251.779 373.911 252.175 372.115 252.175ZM372.115 249.97C373.445 249.97 374.623 249.679 375.65 249.095C376.676 248.489 377.481 247.649 378.065 246.575C378.671 245.479 378.975 244.219 378.975 242.795C378.975 241.349 378.671 240.089 378.065 239.015C377.481 237.942 376.676 237.114 375.65 236.53C374.623 235.924 373.456 235.62 372.15 235.62C370.843 235.62 369.676 235.924 368.65 236.53C367.623 237.114 366.806 237.942 366.2 239.015C365.593 240.089 365.29 241.349 365.29 242.795C365.29 244.219 365.593 245.479 366.2 246.575C366.806 247.649 367.623 248.489 368.65 249.095C369.676 249.679 370.831 249.97 372.115 249.97ZM386.568 252V226.03H389.053V252H386.568ZM395.967 252V233.625H398.452V252H395.967ZM397.227 229.565C396.714 229.565 396.282 229.39 395.932 229.04C395.582 228.69 395.407 228.27 395.407 227.78C395.407 227.29 395.582 226.882 395.932 226.555C396.282 226.205 396.714 226.03 397.227 226.03C397.741 226.03 398.172 226.194 398.522 226.52C398.872 226.847 399.047 227.255 399.047 227.745C399.047 228.259 398.872 228.69 398.522 229.04C398.196 229.39 397.764 229.565 397.227 229.565ZM412.857 252.175C411.084 252.175 409.485 251.779 408.062 250.985C406.662 250.169 405.554 249.06 404.737 247.66C403.92 246.237 403.512 244.615 403.512 242.795C403.512 240.952 403.92 239.33 404.737 237.93C405.554 236.53 406.662 235.434 408.062 234.64C409.462 233.847 411.06 233.45 412.857 233.45C414.677 233.45 416.287 233.847 417.687 234.64C419.11 235.434 420.219 236.53 421.012 237.93C421.829 239.33 422.237 240.952 422.237 242.795C422.237 244.615 421.829 246.237 421.012 247.66C420.219 249.06 419.11 250.169 417.687 250.985C416.264 251.779 414.654 252.175 412.857 252.175ZM412.857 249.97C414.187 249.97 415.365 249.679 416.392 249.095C417.419 248.489 418.224 247.649 418.807 246.575C419.414 245.479 419.717 244.219 419.717 242.795C419.717 241.349 419.414 240.089 418.807 239.015C418.224 237.942 417.419 237.114 416.392 236.53C415.365 235.924 414.199 235.62 412.892 235.62C411.585 235.62 410.419 235.924 409.392 236.53C408.365 237.114 407.549 237.942 406.942 239.015C406.335 240.089 406.032 241.349 406.032 242.795C406.032 244.219 406.335 245.479 406.942 246.575C407.549 247.649 408.365 248.489 409.392 249.095C410.419 249.679 411.574 249.97 412.857 249.97ZM427.043 252.175C426.529 252.175 426.086 251.989 425.713 251.615C425.363 251.242 425.188 250.787 425.188 250.25C425.188 249.69 425.363 249.235 425.713 248.885C426.086 248.535 426.529 248.36 427.043 248.36C427.556 248.36 427.988 248.535 428.338 248.885C428.711 249.235 428.898 249.69 428.898 250.25C428.898 250.787 428.711 251.242 428.338 251.615C427.988 251.989 427.556 252.175 427.043 252.175Z" fill="white"/>
<path d="M93.3905 183.5H95.9455V208H93.3905V183.5ZM78.0605 208H75.4705V183.5H78.0605V208ZM93.6355 196.695H77.7805V194.42H93.6355V196.695ZM111.222 208.175C109.309 208.175 107.629 207.779 106.182 206.985C104.735 206.169 103.604 205.06 102.787 203.66C101.97 202.237 101.562 200.615 101.562 198.795C101.562 196.975 101.947 195.365 102.717 193.965C103.51 192.565 104.584 191.469 105.937 190.675C107.314 189.859 108.854 189.45 110.557 189.45C112.284 189.45 113.812 189.847 115.142 190.64C116.495 191.41 117.557 192.507 118.327 193.93C119.097 195.33 119.482 196.952 119.482 198.795C119.482 198.912 119.47 199.04 119.447 199.18C119.447 199.297 119.447 199.425 119.447 199.565H103.452V197.71H118.117L117.137 198.445C117.137 197.115 116.845 195.937 116.262 194.91C115.702 193.86 114.932 193.044 113.952 192.46C112.972 191.877 111.84 191.585 110.557 191.585C109.297 191.585 108.165 191.877 107.162 192.46C106.159 193.044 105.377 193.86 104.817 194.91C104.257 195.96 103.977 197.162 103.977 198.515V198.9C103.977 200.3 104.28 201.537 104.887 202.61C105.517 203.66 106.38 204.489 107.477 205.095C108.597 205.679 109.869 205.97 111.292 205.97C112.412 205.97 113.45 205.772 114.407 205.375C115.387 204.979 116.227 204.372 116.927 203.555L118.327 205.165C117.51 206.145 116.484 206.892 115.247 207.405C114.034 207.919 112.692 208.175 111.222 208.175ZM124.54 208V182.03H127.025V208H124.54ZM133.94 208V182.03H136.425V208H133.94ZM150.829 208.175C149.056 208.175 147.457 207.779 146.034 206.985C144.634 206.169 143.526 205.06 142.709 203.66C141.892 202.237 141.484 200.615 141.484 198.795C141.484 196.952 141.892 195.33 142.709 193.93C143.526 192.53 144.634 191.434 146.034 190.64C147.434 189.847 149.032 189.45 150.829 189.45C152.649 189.45 154.259 189.847 155.659 190.64C157.082 191.434 158.191 192.53 158.984 193.93C159.801 195.33 160.209 196.952 160.209 198.795C160.209 200.615 159.801 202.237 158.984 203.66C158.191 205.06 157.082 206.169 155.659 206.985C154.236 207.779 152.626 208.175 150.829 208.175ZM150.829 205.97C152.159 205.97 153.337 205.679 154.364 205.095C155.391 204.489 156.196 203.649 156.779 202.575C157.386 201.479 157.689 200.219 157.689 198.795C157.689 197.349 157.386 196.089 156.779 195.015C156.196 193.942 155.391 193.114 154.364 192.53C153.337 191.924 152.171 191.62 150.864 191.62C149.557 191.62 148.391 191.924 147.364 192.53C146.337 193.114 145.521 193.942 144.914 195.015C144.307 196.089 144.004 197.349 144.004 198.795C144.004 200.219 144.307 201.479 144.914 202.575C145.521 203.649 146.337 204.489 147.364 205.095C148.391 205.679 149.546 205.97 150.829 205.97ZM163.265 213.11L164.805 206.635L165.085 208.14C164.548 208.14 164.093 207.965 163.72 207.615C163.37 207.265 163.195 206.81 163.195 206.25C163.195 205.69 163.37 205.235 163.72 204.885C164.093 204.535 164.536 204.36 165.05 204.36C165.586 204.36 166.018 204.547 166.345 204.92C166.695 205.294 166.87 205.737 166.87 206.25C166.87 206.437 166.858 206.624 166.835 206.81C166.811 206.997 166.765 207.207 166.695 207.44C166.625 207.674 166.531 207.954 166.415 208.28L164.945 213.11H163.265ZM181.872 208V183.5H184.462V208H181.872ZM190.403 190.57L191.943 184.13L192.223 185.6C191.687 185.6 191.232 185.437 190.858 185.11C190.508 184.76 190.333 184.305 190.333 183.745C190.333 183.185 190.508 182.73 190.858 182.38C191.232 182.03 191.675 181.855 192.188 181.855C192.725 181.855 193.157 182.042 193.483 182.415C193.833 182.765 194.008 183.209 194.008 183.745C194.008 183.932 193.997 184.119 193.973 184.305C193.95 184.492 193.903 184.702 193.833 184.935C193.787 185.145 193.705 185.414 193.588 185.74L192.083 190.57H190.403ZM222.285 189.45C223.779 189.45 225.074 189.742 226.17 190.325C227.29 190.885 228.154 191.749 228.76 192.915C229.39 194.082 229.705 195.552 229.705 197.325V208H227.22V197.57C227.22 195.634 226.754 194.175 225.82 193.195C224.91 192.192 223.615 191.69 221.935 191.69C220.675 191.69 219.579 191.959 218.645 192.495C217.735 193.009 217.024 193.767 216.51 194.77C216.02 195.75 215.775 196.94 215.775 198.34V208H213.29V197.57C213.29 195.634 212.824 194.175 211.89 193.195C210.957 192.192 209.65 191.69 207.97 191.69C206.734 191.69 205.649 191.959 204.715 192.495C203.782 193.009 203.059 193.767 202.545 194.77C202.055 195.75 201.81 196.94 201.81 198.34V208H199.325V189.625H201.705V194.595L201.32 193.72C201.88 192.39 202.779 191.352 204.015 190.605C205.275 189.835 206.757 189.45 208.46 189.45C210.257 189.45 211.785 189.905 213.045 190.815C214.305 191.702 215.122 193.044 215.495 194.84L214.515 194.455C215.052 192.962 215.997 191.76 217.35 190.85C218.727 189.917 220.372 189.45 222.285 189.45ZM460.396 208.175C459.882 208.175 459.439 207.989 459.066 207.615C458.716 207.242 458.541 206.787 458.541 206.25C458.541 205.69 458.716 205.235 459.066 204.885C459.439 204.535 459.882 204.36 460.396 204.36C460.909 204.36 461.341 204.535 461.691 204.885C462.064 205.235 462.251 205.69 462.251 206.25C462.251 206.787 462.064 207.242 461.691 207.615C461.341 207.989 460.909 208.175 460.396 208.175Z" fill="white"/>
<path d="M252.885 208.21C251.065 208.21 249.315 207.919 247.635 207.335C245.978 206.729 244.695 205.959 243.785 205.025L244.8 203.03C245.663 203.87 246.818 204.582 248.265 205.165C249.735 205.725 251.275 206.005 252.885 206.005C254.425 206.005 255.673 205.819 256.63 205.445C257.61 205.049 258.321 204.524 258.765 203.87C259.231 203.217 259.465 202.494 259.465 201.7C259.465 200.744 259.185 199.974 258.625 199.39C258.088 198.807 257.376 198.352 256.49 198.025C255.603 197.675 254.623 197.372 253.55 197.115C252.476 196.859 251.403 196.59 250.33 196.31C249.256 196.007 248.265 195.61 247.355 195.12C246.468 194.63 245.745 193.989 245.185 193.195C244.648 192.379 244.38 191.317 244.38 190.01C244.38 188.797 244.695 187.689 245.325 186.685C245.978 185.659 246.97 184.842 248.3 184.235C249.63 183.605 251.333 183.29 253.41 183.29C254.786 183.29 256.151 183.489 257.505 183.885C258.858 184.259 260.025 184.784 261.005 185.46L260.13 187.525C259.08 186.825 257.96 186.312 256.77 185.985C255.603 185.659 254.471 185.495 253.375 185.495C251.905 185.495 250.691 185.694 249.735 186.09C248.778 186.487 248.066 187.024 247.6 187.7C247.156 188.354 246.935 189.1 246.935 189.94C246.935 190.897 247.203 191.667 247.74 192.25C248.3 192.834 249.023 193.289 249.91 193.615C250.82 193.942 251.811 194.234 252.885 194.49C253.958 194.747 255.02 195.027 256.07 195.33C257.143 195.634 258.123 196.03 259.01 196.52C259.92 196.987 260.643 197.617 261.18 198.41C261.74 199.204 262.02 200.242 262.02 201.525C262.02 202.715 261.693 203.824 261.04 204.85C260.386 205.854 259.383 206.67 258.03 207.3C256.7 207.907 254.985 208.21 252.885 208.21ZM274.943 208.175C273.03 208.175 271.35 207.779 269.903 206.985C268.456 206.169 267.325 205.06 266.508 203.66C265.691 202.237 265.283 200.615 265.283 198.795C265.283 196.975 265.668 195.365 266.438 193.965C267.231 192.565 268.305 191.469 269.658 190.675C271.035 189.859 272.575 189.45 274.278 189.45C276.005 189.45 277.533 189.847 278.863 190.64C280.216 191.41 281.278 192.507 282.048 193.93C282.818 195.33 283.203 196.952 283.203 198.795C283.203 198.912 283.191 199.04 283.168 199.18C283.168 199.297 283.168 199.425 283.168 199.565H267.173V197.71H281.838L280.858 198.445C280.858 197.115 280.566 195.937 279.983 194.91C279.423 193.86 278.653 193.044 277.673 192.46C276.693 191.877 275.561 191.585 274.278 191.585C273.018 191.585 271.886 191.877 270.883 192.46C269.88 193.044 269.098 193.86 268.538 194.91C267.978 195.96 267.698 197.162 267.698 198.515V198.9C267.698 200.3 268.001 201.537 268.608 202.61C269.238 203.66 270.101 204.489 271.198 205.095C272.318 205.679 273.59 205.97 275.013 205.97C276.133 205.97 277.171 205.772 278.128 205.375C279.108 204.979 279.948 204.372 280.648 203.555L282.048 205.165C281.231 206.145 280.205 206.892 278.968 207.405C277.755 207.919 276.413 208.175 274.943 208.175ZM287.238 199.6V197.43H296.408V199.6H287.238ZM310.114 208.175C308.2 208.175 306.52 207.779 305.074 206.985C303.627 206.169 302.495 205.06 301.679 203.66C300.862 202.237 300.454 200.615 300.454 198.795C300.454 196.975 300.839 195.365 301.609 193.965C302.402 192.565 303.475 191.469 304.829 190.675C306.205 189.859 307.745 189.45 309.449 189.45C311.175 189.45 312.704 189.847 314.034 190.64C315.387 191.41 316.449 192.507 317.219 193.93C317.989 195.33 318.374 196.952 318.374 198.795C318.374 198.912 318.362 199.04 318.339 199.18C318.339 199.297 318.339 199.425 318.339 199.565H302.344V197.71H317.009L316.029 198.445C316.029 197.115 315.737 195.937 315.154 194.91C314.594 193.86 313.824 193.044 312.844 192.46C311.864 191.877 310.732 191.585 309.449 191.585C308.189 191.585 307.057 191.877 306.054 192.46C305.05 193.044 304.269 193.86 303.709 194.91C303.149 195.96 302.869 197.162 302.869 198.515V198.9C302.869 200.3 303.172 201.537 303.779 202.61C304.409 203.66 305.272 204.489 306.369 205.095C307.489 205.679 308.76 205.97 310.184 205.97C311.304 205.97 312.342 205.772 313.299 205.375C314.279 204.979 315.119 204.372 315.819 203.555L317.219 205.165C316.402 206.145 315.375 206.892 314.139 207.405C312.925 207.919 311.584 208.175 310.114 208.175ZM331.027 208.175C329.463 208.175 328.098 207.884 326.932 207.3C325.765 206.717 324.855 205.842 324.202 204.675C323.572 203.509 323.257 202.05 323.257 200.3V189.625H325.742V200.02C325.742 201.98 326.22 203.462 327.177 204.465C328.157 205.445 329.522 205.935 331.272 205.935C332.555 205.935 333.663 205.679 334.597 205.165C335.553 204.629 336.277 203.859 336.767 202.855C337.28 201.852 337.537 200.65 337.537 199.25V189.625H340.022V208H337.642V202.96L338.027 203.87C337.443 205.224 336.533 206.285 335.297 207.055C334.083 207.802 332.66 208.175 331.027 208.175ZM356.327 189.45C357.821 189.45 359.127 189.742 360.247 190.325C361.391 190.885 362.277 191.749 362.907 192.915C363.561 194.082 363.887 195.552 363.887 197.325V208H361.402V197.57C361.402 195.634 360.912 194.175 359.932 193.195C358.976 192.192 357.622 191.69 355.872 191.69C354.566 191.69 353.422 191.959 352.442 192.495C351.486 193.009 350.739 193.767 350.202 194.77C349.689 195.75 349.432 196.94 349.432 198.34V208H346.947V189.625H349.327V194.665L348.942 193.72C349.526 192.39 350.459 191.352 351.742 190.605C353.026 189.835 354.554 189.45 356.327 189.45ZM380.285 208V183.5H389.455C391.532 183.5 393.317 183.839 394.81 184.515C396.303 185.169 397.447 186.125 398.24 187.385C399.057 188.622 399.465 190.127 399.465 191.9C399.465 193.627 399.057 195.12 398.24 196.38C397.447 197.617 396.303 198.574 394.81 199.25C393.317 199.927 391.532 200.265 389.455 200.265H381.72L382.875 199.04V208H380.285ZM382.875 199.25L381.72 197.99H389.385C391.835 197.99 393.69 197.465 394.95 196.415C396.233 195.342 396.875 193.837 396.875 191.9C396.875 189.94 396.233 188.424 394.95 187.35C393.69 186.277 391.835 185.74 389.385 185.74H381.72L382.875 184.515V199.25ZM415.884 208V203.94L415.779 203.275V196.485C415.779 194.922 415.336 193.72 414.449 192.88C413.586 192.04 412.291 191.62 410.564 191.62C409.374 191.62 408.243 191.819 407.169 192.215C406.096 192.612 405.186 193.137 404.439 193.79L403.319 191.935C404.253 191.142 405.373 190.535 406.679 190.115C407.986 189.672 409.363 189.45 410.809 189.45C413.189 189.45 415.021 190.045 416.304 191.235C417.611 192.402 418.264 194.187 418.264 196.59V208H415.884ZM409.549 208.175C408.173 208.175 406.971 207.954 405.944 207.51C404.941 207.044 404.171 206.414 403.634 205.62C403.098 204.804 402.829 203.87 402.829 202.82C402.829 201.864 403.051 201 403.494 200.23C403.961 199.437 404.708 198.807 405.734 198.34C406.784 197.85 408.184 197.605 409.934 197.605H416.269V199.46H410.004C408.231 199.46 406.994 199.775 406.294 200.405C405.618 201.035 405.279 201.817 405.279 202.75C405.279 203.8 405.688 204.64 406.504 205.27C407.321 205.9 408.464 206.215 409.934 206.215C411.334 206.215 412.536 205.9 413.539 205.27C414.566 204.617 415.313 203.684 415.779 202.47L416.339 204.185C415.873 205.399 415.056 206.367 413.889 207.09C412.746 207.814 411.299 208.175 409.549 208.175ZM425.014 208V189.625H427.394V194.63L427.149 193.755C427.662 192.355 428.525 191.294 429.739 190.57C430.952 189.824 432.457 189.45 434.254 189.45V191.865C434.16 191.865 434.067 191.865 433.974 191.865C433.88 191.842 433.787 191.83 433.694 191.83C431.757 191.83 430.24 192.425 429.144 193.615C428.047 194.782 427.499 196.45 427.499 198.62V208H425.014ZM440.748 203.24L440.818 200.055L452.263 189.625H455.308L447.223 197.36L445.823 198.55L440.748 203.24ZM438.788 208V182.03H441.273V208H438.788ZM453.033 208L445.368 198.445L446.978 196.52L456.078 208H453.033Z" fill="#FE2966"/>
<mask id="path-78-inside-1_196_93" fill="white">
<path d="M1 1.00024H541V51.0002H1V1.00024Z"/>
</mask>
<path d="M1 1.00024H541V51.0002H1V1.00024Z" fill="#181D23"/>
<path d="M541 44.0002H1V58.0002H541V44.0002Z" fill="#A5D7CC" mask="url(#path-78-inside-1_196_93)"/>
<path d="M90.4542 28.0002H89.2842V23.6712H84.5262V28.0002H83.3562V18.7182H84.5262V22.6442H89.2842V18.7182H90.4542V28.0002ZM101.091 23.3462C101.091 24.0656 101 24.7199 100.818 25.3092C100.636 25.8899 100.363 26.3926 99.999 26.8172C99.6436 27.2419 99.1973 27.5669 98.66 27.7922C98.1313 28.0176 97.516 28.1302 96.814 28.1302C96.086 28.1302 95.4533 28.0176 94.916 27.7922C94.3786 27.5582 93.9323 27.2332 93.577 26.8172C93.2216 26.3926 92.9573 25.8856 92.784 25.2962C92.6106 24.7069 92.524 24.0526 92.524 23.3332C92.524 22.3799 92.68 21.5479 92.992 20.8372C93.304 20.1266 93.7763 19.5719 94.409 19.1732C95.0503 18.7746 95.8563 18.5752 96.827 18.5752C97.7543 18.5752 98.5343 18.7746 99.167 19.1732C99.7996 19.5632 100.276 20.1179 100.597 20.8372C100.926 21.5479 101.091 22.3842 101.091 23.3462ZM93.759 23.3462C93.759 24.1262 93.8673 24.7979 94.084 25.3612C94.3006 25.9246 94.6343 26.3579 95.085 26.6612C95.5443 26.9646 96.1206 27.1162 96.814 27.1162C97.516 27.1162 98.088 26.9646 98.53 26.6612C98.9806 26.3579 99.3143 25.9246 99.531 25.3612C99.7476 24.7979 99.856 24.1262 99.856 23.3462C99.856 22.1762 99.6133 21.2619 99.128 20.6032C98.6426 19.9359 97.8756 19.6022 96.827 19.6022C96.125 19.6022 95.5443 19.7539 95.085 20.0572C94.6343 20.3519 94.3006 20.7809 94.084 21.3442C93.8673 21.8989 93.759 22.5662 93.759 23.3462ZM107.243 28.0002L104.188 19.8622H104.136C104.154 20.0356 104.167 20.2566 104.175 20.5252C104.193 20.7939 104.206 21.0886 104.214 21.4092C104.223 21.7212 104.227 22.0419 104.227 22.3712V28.0002H103.148V18.7182H104.877L107.737 26.3232H107.789L110.701 18.7182H112.417V28.0002H111.26V22.2932C111.26 21.9899 111.265 21.6909 111.273 21.3962C111.282 21.0929 111.295 20.8112 111.312 20.5512C111.33 20.2826 111.343 20.0572 111.351 19.8752H111.299L108.205 28.0002H107.243ZM120.129 28.0002H114.942V18.7182H120.129V19.7452H116.112V22.6442H119.895V23.6582H116.112V26.9732H120.129V28.0002Z" fill="white"/>
<path d="M148.262 28.0002L147.144 25.1272H143.465L142.36 28.0002H141.177L144.804 18.6792H145.857L149.471 28.0002H148.262ZM145.753 21.2792C145.727 21.2099 145.683 21.0842 145.623 20.9022C145.562 20.7202 145.501 20.5339 145.441 20.3432C145.389 20.1439 145.345 19.9922 145.311 19.8882C145.267 20.0616 145.22 20.2392 145.168 20.4212C145.124 20.5946 145.077 20.7549 145.025 20.9022C144.981 21.0496 144.942 21.1752 144.908 21.2792L143.855 24.0872H146.793L145.753 21.2792ZM153.392 18.7182C154.164 18.7182 154.809 18.7919 155.329 18.9392C155.858 19.0866 156.252 19.3292 156.512 19.6672C156.781 20.0052 156.915 20.4559 156.915 21.0192C156.915 21.3832 156.846 21.7082 156.707 21.9942C156.577 22.2716 156.378 22.5056 156.109 22.6962C155.849 22.8782 155.529 23.0039 155.147 23.0732V23.1382C155.537 23.1989 155.888 23.3116 156.2 23.4762C156.521 23.6409 156.772 23.8749 156.954 24.1782C157.136 24.4816 157.227 24.8759 157.227 25.3612C157.227 25.9246 157.097 26.4056 156.837 26.8042C156.577 27.1942 156.205 27.4932 155.719 27.7012C155.243 27.9006 154.671 28.0002 154.003 28.0002H150.74V18.7182H153.392ZM153.626 22.6702C154.424 22.6702 154.97 22.5446 155.264 22.2932C155.559 22.0332 155.706 21.6519 155.706 21.1492C155.706 20.6379 155.524 20.2739 155.16 20.0572C154.805 19.8319 154.233 19.7192 153.444 19.7192H151.91V22.6702H153.626ZM151.91 23.6452V27.0122H153.782C154.606 27.0122 155.178 26.8519 155.498 26.5312C155.819 26.2106 155.979 25.7902 155.979 25.2702C155.979 24.9409 155.906 24.6549 155.758 24.4122C155.62 24.1696 155.381 23.9832 155.043 23.8532C154.714 23.7146 154.263 23.6452 153.691 23.6452H151.91ZM167.295 23.3462C167.295 24.0656 167.204 24.7199 167.022 25.3092C166.84 25.8899 166.567 26.3926 166.203 26.8172C165.847 27.2419 165.401 27.5669 164.864 27.7922C164.335 28.0176 163.72 28.1302 163.018 28.1302C162.29 28.1302 161.657 28.0176 161.12 27.7922C160.582 27.5582 160.136 27.2332 159.781 26.8172C159.425 26.3926 159.161 25.8856 158.988 25.2962C158.814 24.7069 158.728 24.0526 158.728 23.3332C158.728 22.3799 158.884 21.5479 159.196 20.8372C159.508 20.1266 159.98 19.5719 160.613 19.1732C161.254 18.7746 162.06 18.5752 163.031 18.5752C163.958 18.5752 164.738 18.7746 165.371 19.1732C166.003 19.5632 166.48 20.1179 166.801 20.8372C167.13 21.5479 167.295 22.3842 167.295 23.3462ZM159.963 23.3462C159.963 24.1262 160.071 24.7979 160.288 25.3612C160.504 25.9246 160.838 26.3579 161.289 26.6612C161.748 26.9646 162.324 27.1162 163.018 27.1162C163.72 27.1162 164.292 26.9646 164.734 26.6612C165.184 26.3579 165.518 25.9246 165.735 25.3612C165.951 24.7979 166.06 24.1262 166.06 23.3462C166.06 22.1762 165.817 21.2619 165.332 20.6032C164.846 19.9359 164.079 19.6022 163.031 19.6022C162.329 19.6022 161.748 19.7539 161.289 20.0572C160.838 20.3519 160.504 20.7809 160.288 21.3442C160.071 21.8989 159.963 22.5662 159.963 23.3462ZM176.411 24.7242C176.411 25.3656 176.281 25.9462 176.021 26.4662C175.761 26.9776 175.362 27.3849 174.825 27.6882C174.296 27.9829 173.62 28.1302 172.797 28.1302C171.644 28.1302 170.764 27.8182 170.158 27.1942C169.56 26.5616 169.261 25.7296 169.261 24.6982V18.7182H170.431V24.7372C170.431 25.4912 170.63 26.0762 171.029 26.4922C171.436 26.9082 172.047 27.1162 172.862 27.1162C173.425 27.1162 173.88 27.0166 174.227 26.8172C174.582 26.6092 174.842 26.3276 175.007 25.9722C175.171 25.6082 175.254 25.1922 175.254 24.7242V18.7182H176.411V24.7242ZM181.799 28.0002H180.629V19.7452H177.73V18.7182H184.685V19.7452H181.799V28.0002Z" fill="#FE2966"/>
<path d="M208.911 18.7182C210.124 18.7182 211.008 18.9566 211.563 19.4332C212.118 19.9099 212.395 20.5816 212.395 21.4482C212.395 21.8296 212.33 22.1979 212.2 22.5532C212.079 22.8999 211.875 23.2119 211.589 23.4892C211.303 23.7666 210.922 23.9876 210.445 24.1522C209.968 24.3082 209.383 24.3862 208.69 24.3862H207.624V28.0002H206.454V18.7182H208.911ZM208.807 19.7192H207.624V23.3852H208.56C209.149 23.3852 209.639 23.3246 210.029 23.2032C210.419 23.0732 210.709 22.8696 210.9 22.5922C211.091 22.3149 211.186 21.9509 211.186 21.5002C211.186 20.9022 210.995 20.4559 210.614 20.1612C210.233 19.8666 209.63 19.7192 208.807 19.7192ZM222.424 23.3462C222.424 24.0656 222.333 24.7199 222.151 25.3092C221.969 25.8899 221.696 26.3926 221.332 26.8172C220.977 27.2419 220.53 27.5669 219.993 27.7922C219.464 28.0176 218.849 28.1302 218.147 28.1302C217.419 28.1302 216.786 28.0176 216.249 27.7922C215.712 27.5582 215.265 27.2332 214.91 26.8172C214.555 26.3926 214.29 25.8856 214.117 25.2962C213.944 24.7069 213.857 24.0526 213.857 23.3332C213.857 22.3799 214.013 21.5479 214.325 20.8372C214.637 20.1266 215.109 19.5719 215.742 19.1732C216.383 18.7746 217.189 18.5752 218.16 18.5752C219.087 18.5752 219.867 18.7746 220.5 19.1732C221.133 19.5632 221.609 20.1179 221.93 20.8372C222.259 21.5479 222.424 22.3842 222.424 23.3462ZM215.092 23.3462C215.092 24.1262 215.2 24.7979 215.417 25.3612C215.634 25.9246 215.967 26.3579 216.418 26.6612C216.877 26.9646 217.454 27.1162 218.147 27.1162C218.849 27.1162 219.421 26.9646 219.863 26.6612C220.314 26.3579 220.647 25.9246 220.864 25.3612C221.081 24.7979 221.189 24.1262 221.189 23.3462C221.189 22.1762 220.946 21.2619 220.461 20.6032C219.976 19.9359 219.209 19.6022 218.16 19.6022C217.458 19.6022 216.877 19.7539 216.418 20.0572C215.967 20.3519 215.634 20.7809 215.417 21.3442C215.2 21.8989 215.092 22.5662 215.092 23.3462ZM227.042 18.7182C227.814 18.7182 228.446 18.8179 228.94 19.0172C229.443 19.2079 229.816 19.4982 230.058 19.8882C230.301 20.2782 230.422 20.7679 230.422 21.3572C230.422 21.8512 230.331 22.2629 230.149 22.5922C229.967 22.9216 229.733 23.1859 229.447 23.3852C229.17 23.5759 228.875 23.7276 228.563 23.8402L231.111 28.0002H229.746L227.497 24.1652H225.651V28.0002H224.481V18.7182H227.042ZM226.977 19.7322H225.651V23.1772H227.042C227.545 23.1772 227.957 23.1122 228.277 22.9822C228.598 22.8436 228.832 22.6442 228.979 22.3842C229.135 22.1242 229.213 21.7992 229.213 21.4092C229.213 21.0019 229.131 20.6769 228.966 20.4342C228.81 20.1916 228.568 20.0139 228.238 19.9012C227.909 19.7886 227.489 19.7322 226.977 19.7322ZM235.506 28.0002H234.336V19.7452H231.437V18.7182H238.392V19.7452H235.506V28.0002ZM240.962 28.0002H239.792V18.7182H244.979V19.7452H240.962V23.0342H244.732V24.0612H240.962V28.0002ZM254.632 23.3462C254.632 24.0656 254.541 24.7199 254.359 25.3092C254.177 25.8899 253.904 26.3926 253.54 26.8172C253.185 27.2419 252.738 27.5669 252.201 27.7922C251.672 28.0176 251.057 28.1302 250.355 28.1302C249.627 28.1302 248.994 28.0176 248.457 27.7922C247.92 27.5582 247.473 27.2332 247.118 26.8172C246.763 26.3926 246.498 25.8856 246.325 25.2962C246.152 24.7069 246.065 24.0526 246.065 23.3332C246.065 22.3799 246.221 21.5479 246.533 20.8372C246.845 20.1266 247.317 19.5719 247.95 19.1732C248.591 18.7746 249.397 18.5752 250.368 18.5752C251.295 18.5752 252.075 18.7746 252.708 19.1732C253.341 19.5632 253.817 20.1179 254.138 20.8372C254.467 21.5479 254.632 22.3842 254.632 23.3462ZM247.3 23.3462C247.3 24.1262 247.408 24.7979 247.625 25.3612C247.842 25.9246 248.175 26.3579 248.626 26.6612C249.085 26.9646 249.662 27.1162 250.355 27.1162C251.057 27.1162 251.629 26.9646 252.071 26.6612C252.522 26.3579 252.855 25.9246 253.072 25.3612C253.289 24.7979 253.397 24.1262 253.397 23.3462C253.397 22.1762 253.154 21.2619 252.669 20.6032C252.184 19.9359 251.417 19.6022 250.368 19.6022C249.666 19.6022 249.085 19.7539 248.626 20.0572C248.175 20.3519 247.842 20.7809 247.625 21.3442C247.408 21.8989 247.3 22.5662 247.3 23.3462ZM256.689 28.0002V18.7182H257.859V26.9602H261.915V28.0002H256.689ZM266.12 28.0002H262.766V27.3242L263.858 27.0772V19.6542L262.766 19.3942V18.7182H266.12V19.3942L265.028 19.6542V27.0772L266.12 27.3242V28.0002ZM276.011 23.3462C276.011 24.0656 275.92 24.7199 275.738 25.3092C275.556 25.8899 275.283 26.3926 274.919 26.8172C274.564 27.2419 274.117 27.5669 273.58 27.7922C273.051 28.0176 272.436 28.1302 271.734 28.1302C271.006 28.1302 270.373 28.0176 269.836 27.7922C269.299 27.5582 268.852 27.2332 268.497 26.8172C268.142 26.3926 267.877 25.8856 267.704 25.2962C267.531 24.7069 267.444 24.0526 267.444 23.3332C267.444 22.3799 267.6 21.5479 267.912 20.8372C268.224 20.1266 268.696 19.5719 269.329 19.1732C269.97 18.7746 270.776 18.5752 271.747 18.5752C272.674 18.5752 273.454 18.7746 274.087 19.1732C274.72 19.5632 275.196 20.1179 275.517 20.8372C275.846 21.5479 276.011 22.3842 276.011 23.3462ZM268.679 23.3462C268.679 24.1262 268.787 24.7979 269.004 25.3612C269.221 25.9246 269.554 26.3579 270.005 26.6612C270.464 26.9646 271.041 27.1162 271.734 27.1162C272.436 27.1162 273.008 26.9646 273.45 26.6612C273.901 26.3579 274.234 25.9246 274.451 25.3612C274.668 24.7979 274.776 24.1262 274.776 23.3462C274.776 22.1762 274.533 21.2619 274.048 20.6032C273.563 19.9359 272.796 19.6022 271.747 19.6022C271.045 19.6022 270.464 19.7539 270.005 20.0572C269.554 20.3519 269.221 20.7809 269.004 21.3442C268.787 21.8989 268.679 22.5662 268.679 23.3462Z" fill="white"/>
<path d="M303.898 28.0002H298.711V18.7182H303.898V19.7452H299.881V22.6442H303.664V23.6582H299.881V26.9732H303.898V28.0002ZM312.239 28.0002H310.913L308.456 23.9702L305.96 28.0002H304.725L307.806 23.1642L304.92 18.7182H306.22L308.495 22.3582L310.783 18.7182H312.018L309.145 23.1382L312.239 28.0002ZM316.009 18.7182C317.222 18.7182 318.106 18.9566 318.661 19.4332C319.215 19.9099 319.493 20.5816 319.493 21.4482C319.493 21.8296 319.428 22.1979 319.298 22.5532C319.176 22.8999 318.973 23.2119 318.687 23.4892C318.401 23.7666 318.019 23.9876 317.543 24.1522C317.066 24.3082 316.481 24.3862 315.788 24.3862H314.722V28.0002H313.552V18.7182H316.009ZM315.905 19.7192H314.722V23.3852H315.658C316.247 23.3852 316.737 23.3246 317.127 23.2032C317.517 23.0732 317.807 22.8696 317.998 22.5922C318.188 22.3149 318.284 21.9509 318.284 21.5002C318.284 20.9022 318.093 20.4559 317.712 20.1612C317.33 19.8666 316.728 19.7192 315.905 19.7192ZM326.61 28.0002H321.423V18.7182H326.61V19.7452H322.593V22.6442H326.376V23.6582H322.593V26.9732H326.61V28.0002ZM331.207 18.7182C331.979 18.7182 332.611 18.8179 333.105 19.0172C333.608 19.2079 333.981 19.4982 334.223 19.8882C334.466 20.2782 334.587 20.7679 334.587 21.3572C334.587 21.8512 334.496 22.2629 334.314 22.5922C334.132 22.9216 333.898 23.1859 333.612 23.3852C333.335 23.5759 333.04 23.7276 332.728 23.8402L335.276 28.0002H333.911L331.662 24.1652H329.816V28.0002H328.646V18.7182H331.207ZM331.142 19.7322H329.816V23.1772H331.207C331.71 23.1772 332.122 23.1122 332.442 22.9822C332.763 22.8436 332.997 22.6442 333.144 22.3842C333.3 22.1242 333.378 21.7992 333.378 21.4092C333.378 21.0019 333.296 20.6769 333.131 20.4342C332.975 20.1916 332.733 20.0139 332.403 19.9012C332.074 19.7886 331.654 19.7322 331.142 19.7322ZM339.346 28.0002H335.992V27.3242L337.084 27.0772V19.6542L335.992 19.3942V18.7182H339.346V19.3942L338.254 19.6542V27.0772L339.346 27.3242V28.0002ZM346.325 28.0002H341.138V18.7182H346.325V19.7452H342.308V22.6442H346.091V23.6582H342.308V26.9732H346.325V28.0002ZM355.72 28.0002H354.355L349.389 20.2912H349.337C349.346 20.4472 349.354 20.6206 349.363 20.8112C349.38 21.0019 349.393 21.2099 349.402 21.4352C349.411 21.6519 349.419 21.8772 349.428 22.1112C349.437 22.3452 349.441 22.5792 349.441 22.8132V28.0002H348.362V18.7182H349.714L354.667 26.4012H354.719C354.71 26.2972 354.702 26.1542 354.693 25.9722C354.684 25.7816 354.676 25.5736 354.667 25.3482C354.658 25.1142 354.65 24.8759 354.641 24.6332C354.632 24.3906 354.628 24.1652 354.628 23.9572V18.7182H355.72V28.0002ZM362.217 19.6152C361.723 19.6152 361.277 19.7019 360.878 19.8752C360.479 20.0399 360.141 20.2869 359.864 20.6162C359.587 20.9369 359.374 21.3312 359.227 21.7992C359.08 22.2586 359.006 22.7786 359.006 23.3592C359.006 24.1219 359.123 24.7849 359.357 25.3482C359.6 25.9116 359.955 26.3449 360.423 26.6482C360.9 26.9516 361.493 27.1032 362.204 27.1032C362.611 27.1032 362.997 27.0686 363.361 26.9992C363.725 26.9299 364.08 26.8432 364.427 26.7392V27.7532C364.08 27.8832 363.721 27.9786 363.348 28.0392C362.984 28.0999 362.546 28.1302 362.035 28.1302C361.09 28.1302 360.302 27.9352 359.669 27.5452C359.036 27.1552 358.56 26.6006 358.239 25.8812C357.927 25.1619 357.771 24.3169 357.771 23.3462C357.771 22.6442 357.866 22.0029 358.057 21.4222C358.256 20.8416 358.542 20.3389 358.915 19.9142C359.296 19.4896 359.764 19.1646 360.319 18.9392C360.874 18.7052 361.511 18.5882 362.23 18.5882C362.707 18.5882 363.166 18.6359 363.608 18.7312C364.05 18.8266 364.444 18.9609 364.791 19.1342L364.323 20.1222C364.037 19.9922 363.716 19.8752 363.361 19.7712C363.014 19.6672 362.633 19.6152 362.217 19.6152ZM371.64 28.0002H366.453V18.7182H371.64V19.7452H367.623V22.6442H371.406V23.6582H367.623V26.9732H371.64V28.0002ZM378.942 25.5172C378.942 26.0719 378.807 26.5442 378.539 26.9342C378.27 27.3156 377.884 27.6102 377.382 27.8182C376.888 28.0262 376.303 28.1302 375.627 28.1302C375.28 28.1302 374.946 28.1129 374.626 28.0782C374.314 28.0436 374.028 27.9959 373.768 27.9352C373.508 27.8659 373.278 27.7836 373.079 27.6882V26.5702C373.391 26.7089 373.776 26.8346 374.236 26.9472C374.704 27.0599 375.185 27.1162 375.679 27.1162C376.138 27.1162 376.524 27.0556 376.836 26.9342C377.148 26.8129 377.382 26.6396 377.538 26.4142C377.694 26.1889 377.772 25.9246 377.772 25.6212C377.772 25.3179 377.707 25.0622 377.577 24.8542C377.447 24.6462 377.221 24.4556 376.901 24.2822C376.589 24.1002 376.151 23.9096 375.588 23.7102C375.189 23.5629 374.838 23.4069 374.535 23.2422C374.24 23.0689 373.993 22.8739 373.794 22.6572C373.594 22.4406 373.443 22.1936 373.339 21.9162C373.243 21.6389 373.196 21.3182 373.196 20.9542C373.196 20.4602 373.321 20.0399 373.573 19.6932C373.824 19.3379 374.171 19.0649 374.613 18.8742C375.063 18.6836 375.579 18.5882 376.16 18.5882C376.671 18.5882 377.139 18.6359 377.564 18.7312C377.988 18.8266 378.374 18.9522 378.721 19.1082L378.357 20.1092C378.036 19.9706 377.685 19.8536 377.304 19.7582C376.931 19.6629 376.541 19.6152 376.134 19.6152C375.744 19.6152 375.419 19.6716 375.159 19.7842C374.899 19.8969 374.704 20.0572 374.574 20.2652C374.444 20.4646 374.379 20.6986 374.379 20.9672C374.379 21.2792 374.444 21.5392 374.574 21.7472C374.704 21.9552 374.916 22.1416 375.211 22.3062C375.505 22.4709 375.904 22.6486 376.407 22.8392C376.953 23.0386 377.412 23.2552 377.785 23.4892C378.166 23.7146 378.452 23.9876 378.643 24.3082C378.842 24.6289 378.942 25.0319 378.942 25.5172Z" fill="white"/>
<path d="M407.495 28.0002L406.377 25.1272H402.698L401.593 28.0002H400.41L404.037 18.6792H405.09L408.704 28.0002H407.495ZM404.986 21.2792C404.96 21.2099 404.917 21.0842 404.856 20.9022C404.795 20.7202 404.735 20.5339 404.674 20.3432C404.622 20.1439 404.579 19.9922 404.544 19.8882C404.501 20.0616 404.453 20.2392 404.401 20.4212C404.358 20.5946 404.31 20.7549 404.258 20.9022C404.215 21.0496 404.176 21.1752 404.141 21.2792L403.088 24.0872H406.026L404.986 21.2792ZM412.535 18.7182C413.306 18.7182 413.939 18.8179 414.433 19.0172C414.936 19.2079 415.308 19.4982 415.551 19.8882C415.794 20.2782 415.915 20.7679 415.915 21.3572C415.915 21.8512 415.824 22.2629 415.642 22.5922C415.46 22.9216 415.226 23.1859 414.94 23.3852C414.663 23.5759 414.368 23.7276 414.056 23.8402L416.604 28.0002H415.239L412.99 24.1652H411.144V28.0002H409.974V18.7182H412.535ZM412.47 19.7322H411.144V23.1772H412.535C413.038 23.1772 413.449 23.1122 413.77 22.9822C414.091 22.8436 414.325 22.6442 414.472 22.3842C414.628 22.1242 414.706 21.7992 414.706 21.4092C414.706 21.0019 414.624 20.6769 414.459 20.4342C414.303 20.1916 414.06 20.0139 413.731 19.9012C413.402 19.7886 412.981 19.7322 412.47 19.7322ZM422.039 19.6152C421.545 19.6152 421.098 19.7019 420.7 19.8752C420.301 20.0399 419.963 20.2869 419.686 20.6162C419.408 20.9369 419.196 21.3312 419.049 21.7992C418.901 22.2586 418.828 22.7786 418.828 23.3592C418.828 24.1219 418.945 24.7849 419.179 25.3482C419.421 25.9116 419.777 26.3449 420.245 26.6482C420.721 26.9516 421.315 27.1032 422.026 27.1032C422.433 27.1032 422.819 27.0686 423.183 26.9992C423.547 26.9299 423.902 26.8432 424.249 26.7392V27.7532C423.902 27.8832 423.542 27.9786 423.17 28.0392C422.806 28.0999 422.368 28.1302 421.857 28.1302C420.912 28.1302 420.123 27.9352 419.491 27.5452C418.858 27.1552 418.381 26.6006 418.061 25.8812C417.749 25.1619 417.593 24.3169 417.593 23.3462C417.593 22.6442 417.688 22.0029 417.879 21.4222C418.078 20.8416 418.364 20.3389 418.737 19.9142C419.118 19.4896 419.586 19.1646 420.141 18.9392C420.695 18.7052 421.332 18.5882 422.052 18.5882C422.528 18.5882 422.988 18.6359 423.43 18.7312C423.872 18.8266 424.266 18.9609 424.613 19.1342L424.145 20.1222C423.859 19.9922 423.538 19.8752 423.183 19.7712C422.836 19.6672 422.455 19.6152 422.039 19.6152ZM433.373 28.0002H432.203V23.6712H427.445V28.0002H426.275V18.7182H427.445V22.6442H432.203V18.7182H433.373V28.0002ZM438.523 28.0002H435.169V27.3242L436.261 27.0772V19.6542L435.169 19.3942V18.7182H438.523V19.3942L437.431 19.6542V27.0772L438.523 27.3242V28.0002ZM446.855 18.7182L443.54 28.0002H442.37L439.055 18.7182H440.277L442.37 24.6722C442.465 24.9236 442.547 25.1662 442.617 25.4002C442.686 25.6342 442.747 25.8596 442.799 26.0762C442.859 26.2842 442.911 26.4922 442.955 26.7002C442.998 26.4922 443.046 26.2799 443.098 26.0632C443.158 25.8466 443.223 25.6212 443.293 25.3872C443.371 25.1532 443.453 24.9062 443.54 24.6462L445.62 18.7182H446.855ZM450.724 28.0002H447.37V27.3242L448.462 27.0772V19.6542L447.37 19.3942V18.7182H450.724V19.3942L449.632 19.6542V27.0772L450.724 27.3242V28.0002ZM459.874 28.0002H458.509L453.543 20.2912H453.491C453.5 20.4472 453.508 20.6206 453.517 20.8112C453.534 21.0019 453.547 21.2099 453.556 21.4352C453.565 21.6519 453.573 21.8772 453.582 22.1112C453.591 22.3452 453.595 22.5792 453.595 22.8132V28.0002H452.516V18.7182H453.868L458.821 26.4012H458.873C458.864 26.2972 458.856 26.1542 458.847 25.9722C458.838 25.7816 458.83 25.5736 458.821 25.3482C458.812 25.1142 458.804 24.8759 458.795 24.6332C458.786 24.3906 458.782 24.1652 458.782 23.9572V18.7182H459.874V28.0002ZM466.423 23.0992H469.634V27.6492C469.131 27.8139 468.624 27.9352 468.113 28.0132C467.602 28.0912 467.021 28.1302 466.371 28.1302C465.409 28.1302 464.599 27.9396 463.94 27.5582C463.281 27.1682 462.779 26.6179 462.432 25.9072C462.094 25.1879 461.925 24.3386 461.925 23.3592C461.925 22.3886 462.116 21.5479 462.497 20.8372C462.878 20.1266 463.424 19.5762 464.135 19.1862C464.854 18.7876 465.721 18.5882 466.735 18.5882C467.255 18.5882 467.745 18.6359 468.204 18.7312C468.672 18.8266 469.105 18.9609 469.504 19.1342L469.062 20.1482C468.733 20.0009 468.36 19.8752 467.944 19.7712C467.537 19.6672 467.112 19.6152 466.67 19.6152C465.933 19.6152 465.301 19.7669 464.772 20.0702C464.243 20.3736 463.84 20.8069 463.563 21.3702C463.286 21.9249 463.147 22.5879 463.147 23.3592C463.147 24.0959 463.264 24.7502 463.498 25.3222C463.741 25.8856 464.118 26.3276 464.629 26.6482C465.14 26.9602 465.812 27.1162 466.644 27.1162C466.921 27.1162 467.164 27.1076 467.372 27.0902C467.589 27.0642 467.784 27.0339 467.957 26.9992C468.139 26.9646 468.308 26.9299 468.464 26.8952V24.1392H466.423V23.0992Z" fill="white"/>
</svg>
