<svg width="540" height="400" viewBox="0 0 540 400" fill="none" xmlns="http://www.w3.org/2000/svg">
<rect width="540" height="400" fill="#E9ECF4"/>
<g filter="url(#filter0_d_193_5)">
<path d="M162.435 127.3C160.795 127.3 159.225 127.07 157.725 126.61C156.225 126.13 155.035 125.52 154.155 124.78L155.505 121.75C156.345 122.41 157.385 122.96 158.625 123.4C159.865 123.84 161.135 124.06 162.435 124.06C163.535 124.06 164.425 123.94 165.105 123.7C165.785 123.46 166.285 123.14 166.605 122.74C166.925 122.32 167.085 121.85 167.085 121.33C167.085 120.69 166.855 120.18 166.395 119.8C165.935 119.4 165.335 119.09 164.595 118.87C163.875 118.63 163.065 118.41 162.165 118.21C161.285 118.01 160.395 117.78 159.495 117.52C158.615 117.24 157.805 116.89 157.065 116.47C156.345 116.03 155.755 115.45 155.295 114.73C154.835 114.01 154.605 113.09 154.605 111.97C154.605 110.83 154.905 109.79 155.505 108.85C156.125 107.89 157.055 107.13 158.295 106.57C159.555 105.99 161.145 105.7 163.065 105.7C164.325 105.7 165.575 105.86 166.815 106.18C168.055 106.5 169.135 106.96 170.055 107.56L168.825 110.59C167.885 110.03 166.915 109.62 165.915 109.36C164.915 109.08 163.955 108.94 163.035 108.94C161.955 108.94 161.075 109.07 160.395 109.33C159.735 109.59 159.245 109.93 158.925 110.35C158.625 110.77 158.475 111.25 158.475 111.79C158.475 112.43 158.695 112.95 159.135 113.35C159.595 113.73 160.185 114.03 160.905 114.25C161.645 114.47 162.465 114.69 163.365 114.91C164.265 115.11 165.155 115.34 166.035 115.6C166.935 115.86 167.745 116.2 168.465 116.62C169.205 117.04 169.795 117.61 170.235 118.33C170.695 119.05 170.925 119.96 170.925 121.06C170.925 122.18 170.615 123.22 169.995 124.18C169.395 125.12 168.465 125.88 167.205 126.46C165.945 127.02 164.355 127.3 162.435 127.3ZM181.633 127.21C179.993 127.21 178.533 126.86 177.253 126.16C175.973 125.44 174.963 124.46 174.223 123.22C173.483 121.98 173.113 120.57 173.113 118.99C173.113 117.39 173.483 115.98 174.223 114.76C174.963 113.52 175.973 112.55 177.253 111.85C178.533 111.15 179.993 110.8 181.633 110.8C183.293 110.8 184.763 111.15 186.043 111.85C187.343 112.55 188.353 113.51 189.073 114.73C189.813 115.95 190.183 117.37 190.183 118.99C190.183 120.57 189.813 121.98 189.073 123.22C188.353 124.46 187.343 125.44 186.043 126.16C184.763 126.86 183.293 127.21 181.633 127.21ZM181.633 124C182.553 124 183.373 123.8 184.093 123.4C184.813 123 185.373 122.42 185.773 121.66C186.193 120.9 186.403 120.01 186.403 118.99C186.403 117.95 186.193 117.06 185.773 116.32C185.373 115.56 184.813 114.98 184.093 114.58C183.373 114.18 182.563 113.98 181.663 113.98C180.743 113.98 179.923 114.18 179.203 114.58C178.503 114.98 177.943 115.56 177.523 116.32C177.103 117.06 176.893 117.95 176.893 118.99C176.893 120.01 177.103 120.9 177.523 121.66C177.943 122.42 178.503 123 179.203 123.4C179.923 123.8 180.733 124 181.633 124ZM200.549 127.21C199.189 127.21 197.989 126.96 196.949 126.46C195.909 125.94 195.099 125.16 194.519 124.12C193.939 123.06 193.649 121.73 193.649 120.13V110.98H197.399V119.62C197.399 121.06 197.719 122.14 198.359 122.86C199.019 123.56 199.949 123.91 201.149 123.91C202.029 123.91 202.789 123.73 203.429 123.37C204.089 123.01 204.599 122.47 204.959 121.75C205.339 121.03 205.529 120.14 205.529 119.08V110.98H209.279V127H205.709V122.68L206.339 124C205.799 125.04 205.009 125.84 203.969 126.4C202.929 126.94 201.789 127.21 200.549 127.21ZM223.279 110.8C224.559 110.8 225.699 111.05 226.699 111.55C227.719 112.05 228.519 112.82 229.099 113.86C229.679 114.88 229.969 116.2 229.969 117.82V127H226.219V118.3C226.219 116.88 225.879 115.82 225.199 115.12C224.539 114.42 223.609 114.07 222.409 114.07C221.529 114.07 220.749 114.25 220.069 114.61C219.389 114.97 218.859 115.51 218.479 116.23C218.119 116.93 217.939 117.82 217.939 118.9V127H214.189V110.98H217.759V115.3L217.129 113.98C217.689 112.96 218.499 112.18 219.559 111.64C220.639 111.08 221.879 110.8 223.279 110.8ZM241.535 127.21C239.995 127.21 238.605 126.87 237.365 126.19C236.145 125.49 235.185 124.53 234.485 123.31C233.785 122.09 233.435 120.65 233.435 118.99C233.435 117.33 233.785 115.89 234.485 114.67C235.185 113.45 236.145 112.5 237.365 111.82C238.605 111.14 239.995 110.8 241.535 110.8C242.875 110.8 244.075 111.1 245.135 111.7C246.195 112.28 247.035 113.17 247.655 114.37C248.275 115.57 248.585 117.11 248.585 118.99C248.585 120.85 248.285 122.39 247.685 123.61C247.085 124.81 246.255 125.71 245.195 126.31C244.135 126.91 242.915 127.21 241.535 127.21ZM241.985 124C242.885 124 243.685 123.8 244.385 123.4C245.105 123 245.675 122.42 246.095 121.66C246.535 120.9 246.755 120.01 246.755 118.99C246.755 117.95 246.535 117.06 246.095 116.32C245.675 115.56 245.105 114.98 244.385 114.58C243.685 114.18 242.885 113.98 241.985 113.98C241.085 113.98 240.275 114.18 239.555 114.58C238.855 114.98 238.285 115.56 237.845 116.32C237.425 117.06 237.215 117.95 237.215 118.99C237.215 120.01 237.425 120.9 237.845 121.66C238.285 122.42 238.855 123 239.555 123.4C240.275 123.8 241.085 124 241.985 124ZM246.845 127V123.22L246.995 118.96L246.695 114.7V104.74H250.415V127H246.845ZM269.672 127.21C267.912 127.21 266.552 126.76 265.592 125.86C264.632 124.94 264.152 123.59 264.152 121.81V107.44H267.902V121.72C267.902 122.48 268.092 123.07 268.472 123.49C268.872 123.91 269.422 124.12 270.122 124.12C270.962 124.12 271.662 123.9 272.222 123.46L273.272 126.13C272.832 126.49 272.292 126.76 271.652 126.94C271.012 127.12 270.352 127.21 269.672 127.21ZM261.512 114.1V111.1H272.192V114.1H261.512ZM283.029 127.21C281.389 127.21 279.929 126.86 278.649 126.16C277.369 125.44 276.359 124.46 275.619 123.22C274.879 121.98 274.509 120.57 274.509 118.99C274.509 117.39 274.879 115.98 275.619 114.76C276.359 113.52 277.369 112.55 278.649 111.85C279.929 111.15 281.389 110.8 283.029 110.8C284.689 110.8 286.159 111.15 287.439 111.85C288.739 112.55 289.749 113.51 290.469 114.73C291.209 115.95 291.579 117.37 291.579 118.99C291.579 120.57 291.209 121.98 290.469 123.22C289.749 124.46 288.739 125.44 287.439 126.16C286.159 126.86 284.689 127.21 283.029 127.21ZM283.029 124C283.949 124 284.769 123.8 285.489 123.4C286.209 123 286.769 122.42 287.169 121.66C287.589 120.9 287.799 120.01 287.799 118.99C287.799 117.95 287.589 117.06 287.169 116.32C286.769 115.56 286.209 114.98 285.489 114.58C284.769 114.18 283.959 113.98 283.059 113.98C282.139 113.98 281.319 114.18 280.599 114.58C279.899 114.98 279.339 115.56 278.919 116.32C278.499 117.06 278.289 117.95 278.289 118.99C278.289 120.01 278.499 120.9 278.919 121.66C279.339 122.42 279.899 123 280.599 123.4C281.319 123.8 282.129 124 283.029 124ZM310.326 127.3C308.686 127.3 307.116 127.07 305.616 126.61C304.116 126.13 302.926 125.52 302.046 124.78L303.396 121.75C304.236 122.41 305.276 122.96 306.516 123.4C307.756 123.84 309.026 124.06 310.326 124.06C311.426 124.06 312.316 123.94 312.996 123.7C313.676 123.46 314.176 123.14 314.496 122.74C314.816 122.32 314.976 121.85 314.976 121.33C314.976 120.69 314.746 120.18 314.286 119.8C313.826 119.4 313.226 119.09 312.486 118.87C311.766 118.63 310.956 118.41 310.056 118.21C309.176 118.01 308.286 117.78 307.386 117.52C306.506 117.24 305.696 116.89 304.956 116.47C304.236 116.03 303.646 115.45 303.186 114.73C302.726 114.01 302.496 113.09 302.496 111.97C302.496 110.83 302.796 109.79 303.396 108.85C304.016 107.89 304.946 107.13 306.186 106.57C307.446 105.99 309.036 105.7 310.956 105.7C312.216 105.7 313.466 105.86 314.706 106.18C315.946 106.5 317.026 106.96 317.946 107.56L316.716 110.59C315.776 110.03 314.806 109.62 313.806 109.36C312.806 109.08 311.846 108.94 310.926 108.94C309.846 108.94 308.966 109.07 308.286 109.33C307.626 109.59 307.136 109.93 306.816 110.35C306.516 110.77 306.366 111.25 306.366 111.79C306.366 112.43 306.586 112.95 307.026 113.35C307.486 113.73 308.076 114.03 308.796 114.25C309.536 114.47 310.356 114.69 311.256 114.91C312.156 115.11 313.046 115.34 313.926 115.6C314.826 115.86 315.636 116.2 316.356 116.62C317.096 117.04 317.686 117.61 318.126 118.33C318.586 119.05 318.816 119.96 318.816 121.06C318.816 122.18 318.506 123.22 317.886 124.18C317.286 125.12 316.356 125.88 315.096 126.46C313.836 127.02 312.246 127.3 310.326 127.3ZM331.413 110.8C332.693 110.8 333.833 111.05 334.833 111.55C335.853 112.05 336.653 112.82 337.233 113.86C337.813 114.88 338.103 116.2 338.103 117.82V127H334.353V118.3C334.353 116.88 334.013 115.82 333.333 115.12C332.673 114.42 331.743 114.07 330.543 114.07C329.663 114.07 328.883 114.25 328.203 114.61C327.523 114.97 326.993 115.51 326.613 116.23C326.253 116.93 326.073 117.82 326.073 118.9V127H322.323V104.74H326.073V115.3L325.263 113.98C325.823 112.96 326.633 112.18 327.693 111.64C328.773 111.08 330.013 110.8 331.413 110.8ZM350.09 127.21C348.45 127.21 346.99 126.86 345.71 126.16C344.43 125.44 343.42 124.46 342.68 123.22C341.94 121.98 341.57 120.57 341.57 118.99C341.57 117.39 341.94 115.98 342.68 114.76C343.42 113.52 344.43 112.55 345.71 111.85C346.99 111.15 348.45 110.8 350.09 110.8C351.75 110.8 353.22 111.15 354.5 111.85C355.8 112.55 356.81 113.51 357.53 114.73C358.27 115.95 358.64 117.37 358.64 118.99C358.64 120.57 358.27 121.98 357.53 123.22C356.81 124.46 355.8 125.44 354.5 126.16C353.22 126.86 351.75 127.21 350.09 127.21ZM350.09 124C351.01 124 351.83 123.8 352.55 123.4C353.27 123 353.83 122.42 354.23 121.66C354.65 120.9 354.86 120.01 354.86 118.99C354.86 117.95 354.65 117.06 354.23 116.32C353.83 115.56 353.27 114.98 352.55 114.58C351.83 114.18 351.02 113.98 350.12 113.98C349.2 113.98 348.38 114.18 347.66 114.58C346.96 114.98 346.4 115.56 345.98 116.32C345.56 117.06 345.35 117.95 345.35 118.99C345.35 120.01 345.56 120.9 345.98 121.66C346.4 122.42 346.96 123 347.66 123.4C348.38 123.8 349.19 124 350.09 124ZM365.326 127L359.446 110.98H362.986L368.026 125.11H366.346L371.626 110.98H374.776L379.906 125.11H378.256L383.446 110.98H386.776L380.866 127H377.266L372.586 114.49H373.696L368.926 127H365.326Z" fill="#BABECC"/>
</g>
<g filter="url(#filter1_d_193_5)">
<path d="M232.823 93.72C229.463 93.72 226.243 93.28 223.163 92.4C220.083 91.48 217.603 90.3 215.723 88.86L219.023 81.54C220.823 82.82 222.943 83.88 225.383 84.72C227.863 85.52 230.363 85.92 232.883 85.92C234.803 85.92 236.343 85.74 237.503 85.38C238.703 84.98 239.583 84.44 240.143 83.76C240.703 83.08 240.983 82.3 240.983 81.42C240.983 80.3 240.543 79.42 239.663 78.78C238.783 78.1 237.623 77.56 236.183 77.16C234.743 76.72 233.143 76.32 231.383 75.96C229.663 75.56 227.923 75.08 226.163 74.52C224.443 73.96 222.863 73.24 221.423 72.36C219.983 71.48 218.803 70.32 217.883 68.88C217.003 67.44 216.563 65.6 216.563 63.36C216.563 60.96 217.203 58.78 218.483 56.82C219.803 54.82 221.763 53.24 224.363 52.08C227.003 50.88 230.303 50.28 234.263 50.28C236.903 50.28 239.503 50.6 242.063 51.24C244.623 51.84 246.883 52.76 248.843 54L245.843 61.38C243.883 60.26 241.923 59.44 239.963 58.92C238.003 58.36 236.083 58.08 234.203 58.08C232.323 58.08 230.783 58.3 229.583 58.74C228.383 59.18 227.523 59.76 227.003 60.48C226.483 61.16 226.223 61.96 226.223 62.88C226.223 63.96 226.663 64.84 227.543 65.52C228.423 66.16 229.583 66.68 231.023 67.08C232.463 67.48 234.043 67.88 235.763 68.28C237.523 68.68 239.263 69.14 240.983 69.66C242.743 70.18 244.343 70.88 245.783 71.76C247.223 72.64 248.383 73.8 249.263 75.24C250.183 76.68 250.643 78.5 250.643 80.7C250.643 83.06 249.983 85.22 248.663 87.18C247.343 89.14 245.363 90.72 242.723 91.92C240.123 93.12 236.823 93.72 232.823 93.72ZM254.285 93V86.7L270.485 71.4C271.765 70.24 272.705 69.2 273.305 68.28C273.905 67.36 274.305 66.52 274.505 65.76C274.745 65 274.865 64.3 274.865 63.66C274.865 61.98 274.285 60.7 273.125 59.82C272.005 58.9 270.345 58.44 268.145 58.44C266.385 58.44 264.745 58.78 263.225 59.46C261.745 60.14 260.485 61.2 259.445 62.64L252.365 58.08C253.965 55.68 256.205 53.78 259.085 52.38C261.965 50.98 265.285 50.28 269.045 50.28C272.165 50.28 274.885 50.8 277.205 51.84C279.565 52.84 281.385 54.26 282.665 56.1C283.985 57.94 284.645 60.14 284.645 62.7C284.645 64.06 284.465 65.42 284.105 66.78C283.785 68.1 283.105 69.5 282.065 70.98C281.065 72.46 279.585 74.12 277.625 75.96L264.185 88.62L262.325 85.08H286.025V93H254.285ZM306.475 93.72C303.115 93.72 299.895 93.28 296.815 92.4C293.735 91.48 291.255 90.3 289.375 88.86L292.675 81.54C294.475 82.82 296.595 83.88 299.035 84.72C301.515 85.52 304.015 85.92 306.535 85.92C308.455 85.92 309.995 85.74 311.155 85.38C312.355 84.98 313.235 84.44 313.795 83.76C314.355 83.08 314.635 82.3 314.635 81.42C314.635 80.3 314.195 79.42 313.315 78.78C312.435 78.1 311.275 77.56 309.835 77.16C308.395 76.72 306.795 76.32 305.035 75.96C303.315 75.56 301.575 75.08 299.815 74.52C298.095 73.96 296.515 73.24 295.075 72.36C293.635 71.48 292.455 70.32 291.535 68.88C290.655 67.44 290.215 65.6 290.215 63.36C290.215 60.96 290.855 58.78 292.135 56.82C293.455 54.82 295.415 53.24 298.015 52.08C300.655 50.88 303.955 50.28 307.915 50.28C310.555 50.28 313.155 50.6 315.715 51.24C318.275 51.84 320.535 52.76 322.495 54L319.495 61.38C317.535 60.26 315.575 59.44 313.615 58.92C311.655 58.36 309.735 58.08 307.855 58.08C305.975 58.08 304.435 58.3 303.235 58.74C302.035 59.18 301.175 59.76 300.655 60.48C300.135 61.16 299.875 61.96 299.875 62.88C299.875 63.96 300.315 64.84 301.195 65.52C302.075 66.16 303.235 66.68 304.675 67.08C306.115 67.48 307.695 67.88 309.415 68.28C311.175 68.68 312.915 69.14 314.635 69.66C316.395 70.18 317.995 70.88 319.435 71.76C320.875 72.64 322.035 73.8 322.915 75.24C323.835 76.68 324.295 78.5 324.295 80.7C324.295 83.06 323.635 85.22 322.315 87.18C320.995 89.14 319.015 90.72 316.375 91.92C313.775 93.12 310.475 93.72 306.475 93.72Z" fill="#AFB3C2"/>
</g>
<g filter="url(#filter2_d_193_5)">
<rect x="225.176" y="265" width="90" height="85.3333" rx="30" fill="#E6E8ED"/>
</g>
<g filter="url(#filter3_d_193_5)">
<rect x="366.353" y="265" width="90" height="85.3333" rx="30" fill="#E6E8ED"/>
</g>
<g filter="url(#filter4_d_193_5)">
<rect x="84" y="265" width="90" height="85.3333" rx="30" fill="#E6E8ED"/>
</g>
<g filter="url(#filter5_d_193_5)">
<path d="M427.302 298.625L419.517 301.653V294H393V322.367H419.517V314.097L427.302 317.125H430V298.625H427.302ZM427.533 314.568L417.05 310.491V319.9H395.467V296.467H417.05V305.259L427.533 301.182V314.568Z" fill="#7D808A"/>
</g>
<g filter="url(#filter6_d_193_5)">
<path d="M114.329 293.372L112.048 291.091C112.039 291.101 112.029 291.11 112.019 291.12C107.537 295.601 105.013 301.676 105 308.015C104.987 314.353 107.485 320.439 111.949 324.939L114.23 322.658C110.361 318.761 108.197 313.486 108.216 307.994C108.235 302.502 110.433 297.243 114.329 293.371V293.372Z" fill="#7D808A"/>
<path d="M145.911 291.12C145.871 291.08 145.829 291.04 145.789 291L143.508 293.281C145.46 295.197 147.014 297.48 148.079 300C149.144 302.519 149.7 305.225 149.714 307.96C149.728 310.696 149.2 313.407 148.161 315.937C147.121 318.467 145.591 320.767 143.658 322.702L145.939 324.983C150.421 320.487 152.936 314.395 152.93 308.046C152.925 301.697 150.4 295.61 145.911 291.121L145.911 291.12Z" fill="#7D808A"/>
<path d="M118.626 297.669C115.871 300.402 114.314 304.115 114.295 307.995C114.277 311.875 115.798 315.604 118.526 318.363L120.799 316.09C118.675 313.934 117.492 311.022 117.511 307.995C117.529 304.968 118.748 302.072 120.898 299.942L118.626 297.669Z" fill="#7D808A"/>
<path d="M136.939 299.85C138.027 300.904 138.896 302.163 139.493 303.555C140.091 304.948 140.406 306.445 140.42 307.96C140.434 309.475 140.147 310.978 139.575 312.381C139.003 313.784 138.158 315.059 137.09 316.133L139.363 318.406C140.731 317.034 141.813 315.405 142.546 313.612C143.28 311.818 143.65 309.898 143.636 307.96C143.622 306.023 143.224 304.108 142.465 302.326C141.705 300.544 140.6 298.93 139.212 297.578L136.939 299.85Z" fill="#7D808A"/>
<path d="M132.818 303.97C131.876 303.086 130.657 302.554 129.368 302.463C128.079 302.373 126.798 302.729 125.742 303.473C124.685 304.216 123.916 305.301 123.566 306.545C123.216 307.789 123.305 309.116 123.819 310.301C124.332 311.487 125.239 312.46 126.386 313.055C127.533 313.65 128.85 313.832 130.116 313.569C131.381 313.307 132.517 312.616 133.333 311.613C134.148 310.611 134.593 309.358 134.593 308.066C134.593 307.298 134.436 306.538 134.131 305.834C133.825 305.129 133.379 304.495 132.818 303.97ZM128.966 310.478C128.489 310.478 128.022 310.336 127.626 310.071C127.229 309.806 126.92 309.429 126.738 308.989C126.555 308.548 126.507 308.063 126.6 307.595C126.693 307.128 126.923 306.698 127.26 306.361C127.598 306.023 128.027 305.794 128.495 305.701C128.963 305.608 129.448 305.655 129.888 305.838C130.329 306.02 130.706 306.33 130.971 306.726C131.236 307.123 131.377 307.589 131.377 308.066C131.377 308.383 131.315 308.696 131.194 308.989C131.072 309.281 130.895 309.547 130.671 309.771C130.447 309.995 130.181 310.173 129.888 310.294C129.596 310.415 129.282 310.478 128.966 310.478Z" fill="#7D808A"/>
</g>
<g filter="url(#filter7_d_193_5)">
<path d="M282.835 315.492L276.502 311.376L278.89 306.999C279.446 305.977 279.738 304.832 279.739 303.668V296.739C279.739 294.156 278.713 291.679 276.887 289.853C275.06 288.026 272.583 287 270 287C267.417 287 264.94 288.026 263.113 289.853C261.287 291.679 260.261 294.156 260.261 296.739V303.668C260.262 304.832 260.554 305.977 261.11 306.999L263.498 311.376L257.165 315.492C256.192 316.122 255.392 316.986 254.839 318.005C254.286 319.024 253.998 320.165 254 321.324V328.739H286V321.324C286.002 320.165 285.714 319.024 285.161 318.005C284.608 316.986 283.808 316.122 282.835 315.492ZM283.217 325.956H256.783V321.324C256.781 320.629 256.954 319.944 257.286 319.333C257.618 318.721 258.098 318.203 258.682 317.825L267.174 312.305L263.553 305.667C263.219 305.053 263.044 304.366 263.043 303.668V296.739C263.043 294.894 263.776 293.125 265.081 291.82C266.386 290.516 268.155 289.783 270 289.783C271.845 289.783 273.614 290.516 274.919 291.82C276.224 293.125 276.957 294.894 276.957 296.739V303.668C276.956 304.366 276.781 305.053 276.447 305.667L272.826 312.305L281.318 317.825C281.902 318.203 282.382 318.721 282.714 319.333C283.046 319.944 283.219 320.629 283.217 321.324V325.956Z" fill="#7D808A"/>
</g>
<g filter="url(#filter8_i_193_5)">
<rect x="84" y="151" width="372.35" height="90" rx="30" fill="#E6E8ED"/>
</g>
<g filter="url(#filter9_i_193_5)">
<path d="M173.476 185V172.6C173.476 171.65 173.701 170.792 174.151 170.025C174.618 169.258 175.234 168.65 176.001 168.2C176.784 167.733 177.643 167.5 178.576 167.5H184.901V170.65H178.976C178.443 170.65 177.984 170.842 177.601 171.225C177.234 171.608 177.051 172.067 177.051 172.6V175.425H184.051V178.575H177.051V185H173.476ZM193.033 185.3C191.716 185.3 190.541 185.008 189.508 184.425C188.474 183.825 187.658 183.025 187.058 182.025C186.458 181.008 186.158 179.875 186.158 178.625C186.158 177.375 186.458 176.25 187.058 175.25C187.658 174.233 188.474 173.433 189.508 172.85C190.541 172.25 191.716 171.95 193.033 171.95C194.349 171.95 195.524 172.25 196.558 172.85C197.591 173.433 198.408 174.233 199.008 175.25C199.608 176.25 199.908 177.375 199.908 178.625C199.908 179.875 199.608 181.008 199.008 182.025C198.408 183.025 197.591 183.825 196.558 184.425C195.524 185.008 194.349 185.3 193.033 185.3ZM193.033 182.375C193.733 182.375 194.333 182.208 194.833 181.875C195.349 181.542 195.741 181.092 196.008 180.525C196.291 179.958 196.433 179.325 196.433 178.625C196.433 177.925 196.291 177.292 196.008 176.725C195.741 176.158 195.349 175.708 194.833 175.375C194.333 175.042 193.733 174.875 193.033 174.875C192.333 174.875 191.724 175.042 191.208 175.375C190.708 175.708 190.316 176.158 190.033 176.725C189.766 177.292 189.633 177.925 189.633 178.625C189.633 179.325 189.766 179.958 190.033 180.525C190.316 181.092 190.708 181.542 191.208 181.875C191.724 182.208 192.333 182.375 193.033 182.375ZM202.286 185V175.875C202.286 174.742 202.602 173.858 203.236 173.225C203.886 172.575 204.777 172.25 205.911 172.25H209.436V175.175H206.511C206.294 175.175 206.102 175.25 205.936 175.4C205.786 175.55 205.711 175.742 205.711 175.975V185H202.286ZM224.538 171.95C225.621 171.95 226.58 172.125 227.413 172.475C228.246 172.808 228.946 173.292 229.513 173.925C230.08 174.542 230.513 175.275 230.813 176.125C231.113 176.958 231.263 177.875 231.263 178.875C231.263 180.125 231.005 181.233 230.488 182.2C229.988 183.167 229.28 183.925 228.363 184.475C227.446 185.025 226.363 185.3 225.113 185.3C224.58 185.3 224.063 185.225 223.563 185.075C223.08 184.925 222.638 184.708 222.238 184.425C221.855 184.142 221.53 183.808 221.263 183.425H221.238V190.5H217.813V178.875C217.813 177.458 218.088 176.233 218.638 175.2C219.188 174.167 219.963 173.367 220.963 172.8C221.98 172.233 223.171 171.95 224.538 171.95ZM224.538 174.875C223.871 174.875 223.288 175.042 222.788 175.375C222.305 175.708 221.93 176.158 221.663 176.725C221.413 177.292 221.288 177.925 221.288 178.625C221.288 179.325 221.413 179.958 221.663 180.525C221.93 181.092 222.305 181.542 222.788 181.875C223.288 182.208 223.871 182.375 224.538 182.375C225.221 182.375 225.805 182.208 226.288 181.875C226.771 181.542 227.138 181.092 227.388 180.525C227.655 179.958 227.788 179.325 227.788 178.625C227.788 177.925 227.655 177.292 227.388 176.725C227.138 176.158 226.771 175.708 226.288 175.375C225.805 175.042 225.221 174.875 224.538 174.875ZM240.183 185C238.733 185 237.467 184.725 236.383 184.175C235.317 183.608 234.483 182.842 233.883 181.875C233.3 180.908 233.008 179.825 233.008 178.625C233.008 177.275 233.283 176.1 233.833 175.1C234.383 174.1 235.133 173.325 236.083 172.775C237.033 172.225 238.108 171.95 239.308 171.95C240.742 171.95 241.9 172.25 242.783 172.85C243.683 173.45 244.342 174.258 244.758 175.275C245.175 176.275 245.383 177.392 245.383 178.625C245.383 178.792 245.375 178.992 245.358 179.225C245.342 179.442 245.317 179.608 245.283 179.725H236.658C236.792 180.242 237.017 180.675 237.333 181.025C237.667 181.375 238.075 181.642 238.558 181.825C239.058 181.992 239.617 182.075 240.233 182.075H243.783V185H240.183ZM236.633 177.425H241.958C241.925 177.108 241.867 176.817 241.783 176.55C241.7 176.267 241.583 176.017 241.433 175.8C241.283 175.583 241.108 175.4 240.908 175.25C240.708 175.1 240.475 174.983 240.208 174.9C239.942 174.817 239.65 174.775 239.333 174.775C238.917 174.775 238.542 174.85 238.208 175C237.892 175.15 237.625 175.35 237.408 175.6C237.192 175.85 237.017 176.133 236.883 176.45C236.767 176.767 236.683 177.092 236.633 177.425ZM253.921 185.3C252.605 185.3 251.43 185.008 250.396 184.425C249.363 183.825 248.546 183.025 247.946 182.025C247.346 181.008 247.046 179.875 247.046 178.625C247.046 177.375 247.346 176.25 247.946 175.25C248.546 174.233 249.363 173.433 250.396 172.85C251.43 172.25 252.605 171.95 253.921 171.95C255.238 171.95 256.413 172.25 257.446 172.85C258.48 173.433 259.296 174.233 259.896 175.25C260.496 176.25 260.796 177.375 260.796 178.625C260.796 179.875 260.496 181.008 259.896 182.025C259.296 183.025 258.48 183.825 257.446 184.425C256.413 185.008 255.238 185.3 253.921 185.3ZM253.921 182.375C254.621 182.375 255.221 182.208 255.721 181.875C256.238 181.542 256.63 181.092 256.896 180.525C257.18 179.958 257.321 179.325 257.321 178.625C257.321 177.925 257.18 177.292 256.896 176.725C256.63 176.158 256.238 175.708 255.721 175.375C255.221 175.042 254.621 174.875 253.921 174.875C253.221 174.875 252.613 175.042 252.096 175.375C251.596 175.708 251.205 176.158 250.921 176.725C250.655 177.292 250.521 177.925 250.521 178.625C250.521 179.325 250.655 179.958 250.921 180.525C251.205 181.092 251.596 181.542 252.096 181.875C252.613 182.208 253.221 182.375 253.921 182.375ZM269.899 171.95C270.983 171.95 271.941 172.125 272.774 172.475C273.608 172.808 274.308 173.292 274.874 173.925C275.441 174.542 275.874 175.275 276.174 176.125C276.474 176.958 276.624 177.875 276.624 178.875C276.624 180.125 276.366 181.233 275.849 182.2C275.349 183.167 274.641 183.925 273.724 184.475C272.808 185.025 271.724 185.3 270.474 185.3C269.941 185.3 269.424 185.225 268.924 185.075C268.441 184.925 267.999 184.708 267.599 184.425C267.216 184.142 266.891 183.808 266.624 183.425H266.599V190.5H263.174V178.875C263.174 177.458 263.449 176.233 263.999 175.2C264.549 174.167 265.324 173.367 266.324 172.8C267.341 172.233 268.533 171.95 269.899 171.95ZM269.899 174.875C269.233 174.875 268.649 175.042 268.149 175.375C267.666 175.708 267.291 176.158 267.024 176.725C266.774 177.292 266.649 177.925 266.649 178.625C266.649 179.325 266.774 179.958 267.024 180.525C267.291 181.092 267.666 181.542 268.149 181.875C268.649 182.208 269.233 182.375 269.899 182.375C270.583 182.375 271.166 182.208 271.649 181.875C272.133 181.542 272.499 181.092 272.749 180.525C273.016 179.958 273.149 179.325 273.149 178.625C273.149 177.925 273.016 177.292 272.749 176.725C272.499 176.158 272.133 175.708 271.649 175.375C271.166 175.042 270.583 174.875 269.899 174.875ZM279.12 185V166.75H282.545V185H279.12ZM292.21 185C290.76 185 289.493 184.725 288.41 184.175C287.343 183.608 286.51 182.842 285.91 181.875C285.326 180.908 285.035 179.825 285.035 178.625C285.035 177.275 285.31 176.1 285.86 175.1C286.41 174.1 287.16 173.325 288.11 172.775C289.06 172.225 290.135 171.95 291.335 171.95C292.768 171.95 293.926 172.25 294.81 172.85C295.71 173.45 296.368 174.258 296.785 175.275C297.201 176.275 297.41 177.392 297.41 178.625C297.41 178.792 297.401 178.992 297.385 179.225C297.368 179.442 297.343 179.608 297.31 179.725H288.685C288.818 180.242 289.043 180.675 289.36 181.025C289.693 181.375 290.101 181.642 290.585 181.825C291.085 181.992 291.643 182.075 292.26 182.075H295.81V185H292.21ZM288.66 177.425H293.985C293.951 177.108 293.893 176.817 293.81 176.55C293.726 176.267 293.61 176.017 293.46 175.8C293.31 175.583 293.135 175.4 292.935 175.25C292.735 175.1 292.501 174.983 292.235 174.9C291.968 174.817 291.676 174.775 291.36 174.775C290.943 174.775 290.568 174.85 290.235 175C289.918 175.15 289.651 175.35 289.435 175.6C289.218 175.85 289.043 176.133 288.91 176.45C288.793 176.767 288.71 177.092 288.66 177.425ZM311.164 185.3C310.297 185.3 309.506 185.133 308.789 184.8C308.072 184.45 307.497 183.925 307.064 183.225C306.647 182.525 306.439 181.642 306.439 180.575V172.25H309.864V181.075C309.864 181.308 309.922 181.525 310.039 181.725C310.156 181.925 310.314 182.083 310.514 182.2C310.714 182.317 310.931 182.375 311.164 182.375C311.397 182.375 311.614 182.317 311.814 182.2C312.014 182.083 312.172 181.925 312.289 181.725C312.406 181.525 312.464 181.308 312.464 181.075V176.675C312.464 175.675 312.656 174.825 313.039 174.125C313.439 173.425 313.989 172.892 314.689 172.525C315.406 172.142 316.239 171.95 317.189 171.95C318.139 171.95 318.964 172.142 319.664 172.525C320.381 172.892 320.931 173.425 321.314 174.125C321.714 174.825 321.914 175.675 321.914 176.675V181.075C321.914 181.308 321.972 181.525 322.089 181.725C322.206 181.925 322.364 182.083 322.564 182.2C322.764 182.317 322.981 182.375 323.214 182.375C323.464 182.375 323.681 182.317 323.864 182.2C324.064 182.083 324.222 181.925 324.339 181.725C324.456 181.525 324.514 181.308 324.514 181.075V172.25H327.939V180.575C327.939 181.642 327.722 182.525 327.289 183.225C326.872 183.925 326.306 184.45 325.589 184.8C324.872 185.133 324.081 185.3 323.214 185.3C322.364 185.3 321.581 185.133 320.864 184.8C320.147 184.45 319.572 183.925 319.139 183.225C318.706 182.525 318.489 181.642 318.489 180.575V176.175C318.489 175.925 318.431 175.708 318.314 175.525C318.197 175.325 318.039 175.167 317.839 175.05C317.656 174.933 317.439 174.875 317.189 174.875C316.956 174.875 316.739 174.933 316.539 175.05C316.339 175.167 316.181 175.325 316.064 175.525C315.947 175.708 315.889 175.925 315.889 176.175V180.575C315.889 181.642 315.672 182.525 315.239 183.225C314.806 183.925 314.231 184.45 313.514 184.8C312.814 185.133 312.031 185.3 311.164 185.3ZM331.195 185V172.25H334.645V185H331.195ZM332.92 170.725C332.336 170.725 331.828 170.517 331.395 170.1C330.978 169.667 330.77 169.158 330.77 168.575C330.77 167.992 330.978 167.492 331.395 167.075C331.828 166.642 332.336 166.425 332.92 166.425C333.503 166.425 334.003 166.642 334.42 167.075C334.853 167.492 335.07 167.992 335.07 168.575C335.07 169.158 334.853 169.667 334.42 170.1C334.003 170.517 333.503 170.725 332.92 170.725ZM342.285 185C341.152 185 340.26 184.675 339.61 184.025C338.977 183.375 338.66 182.492 338.66 181.375V169.05H342.085V181.275C342.085 181.492 342.16 181.683 342.31 181.85C342.477 182 342.668 182.075 342.885 182.075H345.66V185H342.285ZM336.485 175.175V172.25H345.66V175.175H336.485ZM348.285 185V166.75H351.71V173.15C352.243 172.717 352.818 172.408 353.435 172.225C354.051 172.042 354.66 171.95 355.26 171.95C356.493 171.95 357.51 172.208 358.31 172.725C359.126 173.242 359.735 173.933 360.135 174.8C360.535 175.667 360.735 176.625 360.735 177.675V185H357.31V177.675C357.31 177.158 357.185 176.692 356.935 176.275C356.685 175.842 356.343 175.5 355.91 175.25C355.493 175 355.026 174.875 354.51 174.875C354.01 174.875 353.543 175 353.11 175.25C352.693 175.483 352.351 175.808 352.085 176.225C351.835 176.625 351.71 177.075 351.71 177.575V185H348.285ZM114.447 225V217.425C114.447 216.425 114.688 215.508 115.172 214.675C115.655 213.842 116.347 213.183 117.247 212.7C118.163 212.2 119.263 211.95 120.547 211.95C121.163 211.95 121.73 212.025 122.247 212.175C122.78 212.308 123.272 212.508 123.722 212.775C124.172 213.042 124.563 213.358 124.897 213.725H124.922C125.272 213.358 125.672 213.042 126.122 212.775C126.572 212.508 127.063 212.308 127.597 212.175C128.13 212.025 128.705 211.95 129.322 211.95C130.605 211.95 131.697 212.2 132.597 212.7C133.513 213.183 134.213 213.842 134.697 214.675C135.18 215.508 135.422 216.425 135.422 217.425V225H131.997V217.425C131.997 216.958 131.872 216.533 131.622 216.15C131.388 215.767 131.072 215.458 130.672 215.225C130.272 214.992 129.822 214.875 129.322 214.875C128.838 214.875 128.388 214.992 127.972 215.225C127.572 215.458 127.247 215.767 126.997 216.15C126.763 216.533 126.647 216.958 126.647 217.425V225H123.222V217.425C123.222 216.958 123.097 216.533 122.847 216.15C122.613 215.767 122.297 215.458 121.897 215.225C121.497 214.992 121.047 214.875 120.547 214.875C120.063 214.875 119.613 214.992 119.197 215.225C118.797 215.458 118.472 215.767 118.222 216.15C117.988 216.533 117.872 216.958 117.872 217.425V225H114.447ZM138.666 225V212.25H142.116V225H138.666ZM140.391 210.725C139.807 210.725 139.299 210.517 138.866 210.1C138.449 209.667 138.241 209.158 138.241 208.575C138.241 207.992 138.449 207.492 138.866 207.075C139.299 206.642 139.807 206.425 140.391 206.425C140.974 206.425 141.474 206.642 141.891 207.075C142.324 207.492 142.541 207.992 142.541 208.575C142.541 209.158 142.324 209.667 141.891 210.1C141.474 210.517 140.974 210.725 140.391 210.725ZM145.331 225V206.75H148.756V225H145.331ZM157.971 225.3C156.904 225.3 155.946 225.133 155.096 224.8C154.262 224.45 153.562 223.967 152.996 223.35C152.429 222.717 151.996 221.983 151.696 221.15C151.396 220.3 151.246 219.375 151.246 218.375C151.246 217.108 151.496 216 151.996 215.05C152.512 214.083 153.229 213.325 154.146 212.775C155.079 212.225 156.162 211.95 157.396 211.95C157.929 211.95 158.437 212.025 158.921 212.175C159.421 212.325 159.871 212.542 160.271 212.825C160.671 213.108 160.996 213.442 161.246 213.825H161.271V206.75H164.696V218.375C164.696 219.775 164.421 221 163.871 222.05C163.321 223.083 162.546 223.883 161.546 224.45C160.546 225.017 159.354 225.3 157.971 225.3ZM157.971 222.375C158.654 222.375 159.237 222.208 159.721 221.875C160.204 221.542 160.571 221.092 160.821 220.525C161.087 219.958 161.221 219.325 161.221 218.625C161.221 217.925 161.087 217.292 160.821 216.725C160.571 216.158 160.204 215.708 159.721 215.375C159.237 215.042 158.654 214.875 157.971 214.875C157.304 214.875 156.721 215.042 156.221 215.375C155.737 215.708 155.362 216.158 155.096 216.725C154.846 217.292 154.721 217.925 154.721 218.625C154.721 219.325 154.846 219.958 155.096 220.525C155.362 221.092 155.737 221.542 156.221 221.875C156.721 222.208 157.304 222.375 157.971 222.375ZM174.432 225V206.75H177.857V213.15C178.39 212.717 178.965 212.408 179.582 212.225C180.199 212.042 180.807 211.95 181.407 211.95C182.64 211.95 183.657 212.208 184.457 212.725C185.274 213.242 185.882 213.933 186.282 214.8C186.682 215.667 186.882 216.625 186.882 217.675V225H183.457V217.675C183.457 217.158 183.332 216.692 183.082 216.275C182.832 215.842 182.49 215.5 182.057 215.25C181.64 215 181.174 214.875 180.657 214.875C180.157 214.875 179.69 215 179.257 215.25C178.84 215.483 178.499 215.808 178.232 216.225C177.982 216.625 177.857 217.075 177.857 217.575V225H174.432ZM196.555 225C195.105 225 193.839 224.725 192.755 224.175C191.689 223.608 190.855 222.842 190.255 221.875C189.672 220.908 189.38 219.825 189.38 218.625C189.38 217.275 189.655 216.1 190.205 215.1C190.755 214.1 191.505 213.325 192.455 212.775C193.405 212.225 194.48 211.95 195.68 211.95C197.114 211.95 198.272 212.25 199.155 212.85C200.055 213.45 200.714 214.258 201.13 215.275C201.547 216.275 201.755 217.392 201.755 218.625C201.755 218.792 201.747 218.992 201.73 219.225C201.714 219.442 201.689 219.608 201.655 219.725H193.03C193.164 220.242 193.389 220.675 193.705 221.025C194.039 221.375 194.447 221.642 194.93 221.825C195.43 221.992 195.989 222.075 196.605 222.075H200.155V225H196.555ZM193.005 217.425H198.33C198.297 217.108 198.239 216.817 198.155 216.55C198.072 216.267 197.955 216.017 197.805 215.8C197.655 215.583 197.48 215.4 197.28 215.25C197.08 215.1 196.847 214.983 196.58 214.9C196.314 214.817 196.022 214.775 195.705 214.775C195.289 214.775 194.914 214.85 194.58 215C194.264 215.15 193.997 215.35 193.78 215.6C193.564 215.85 193.389 216.133 193.255 216.45C193.139 216.767 193.055 217.092 193.005 217.425ZM209.193 225.3C208.027 225.3 207.01 225 206.143 224.4C205.277 223.8 204.602 223 204.118 222C203.652 220.983 203.418 219.867 203.418 218.65C203.418 217.4 203.685 216.267 204.218 215.25C204.768 214.233 205.552 213.433 206.568 212.85C207.585 212.25 208.802 211.95 210.218 211.95C211.652 211.95 212.86 212.25 213.843 212.85C214.827 213.45 215.577 214.258 216.093 215.275C216.61 216.292 216.868 217.417 216.868 218.65V225H213.443V222.875H213.393C213.143 223.325 212.827 223.733 212.443 224.1C212.077 224.467 211.627 224.758 211.093 224.975C210.56 225.192 209.927 225.3 209.193 225.3ZM210.168 222.375C210.835 222.375 211.41 222.208 211.893 221.875C212.377 221.542 212.743 221.092 212.993 220.525C213.26 219.942 213.393 219.3 213.393 218.6C213.393 217.9 213.26 217.275 212.993 216.725C212.743 216.158 212.377 215.708 211.893 215.375C211.41 215.042 210.835 214.875 210.168 214.875C209.485 214.875 208.893 215.042 208.393 215.375C207.91 215.708 207.535 216.158 207.268 216.725C207.018 217.275 206.893 217.9 206.893 218.6C206.893 219.3 207.018 219.942 207.268 220.525C207.535 221.092 207.91 221.542 208.393 221.875C208.893 222.208 209.485 222.375 210.168 222.375ZM219.986 225V215.875C219.986 214.742 220.303 213.858 220.936 213.225C221.586 212.575 222.478 212.25 223.611 212.25H227.136V215.175H224.211C223.994 215.175 223.803 215.25 223.636 215.4C223.486 215.55 223.411 215.742 223.411 215.975V225H219.986ZM229.022 225V212.25H232.472V225H229.022ZM230.747 210.725C230.164 210.725 229.655 210.517 229.222 210.1C228.805 209.667 228.597 209.158 228.597 208.575C228.597 207.992 228.805 207.492 229.222 207.075C229.655 206.642 230.164 206.425 230.747 206.425C231.33 206.425 231.83 206.642 232.247 207.075C232.68 207.492 232.897 207.992 232.897 208.575C232.897 209.158 232.68 209.667 232.247 210.1C231.83 210.517 231.33 210.725 230.747 210.725ZM235.687 225V217.675C235.687 216.625 235.929 215.667 236.412 214.8C236.912 213.933 237.629 213.242 238.562 212.725C239.495 212.208 240.612 211.95 241.912 211.95C243.229 211.95 244.345 212.208 245.262 212.725C246.195 213.242 246.904 213.933 247.387 214.8C247.887 215.667 248.137 216.625 248.137 217.675V225H244.712V217.675C244.712 217.158 244.587 216.692 244.337 216.275C244.087 215.842 243.745 215.5 243.312 215.25C242.895 215 242.429 214.875 241.912 214.875C241.395 214.875 240.92 215 240.487 215.25C240.07 215.5 239.737 215.842 239.487 216.275C239.237 216.692 239.112 217.158 239.112 217.675V225H235.687ZM253.31 230.075V227.15H259.86C260.094 227.15 260.285 227.067 260.435 226.9C260.585 226.75 260.66 226.567 260.66 226.35V223.225H260.635C260.252 223.658 259.86 224.008 259.46 224.275C259.06 224.542 258.627 224.742 258.16 224.875C257.71 224.992 257.21 225.05 256.66 225.05C255.527 225.05 254.502 224.783 253.585 224.25C252.685 223.7 251.969 222.933 251.435 221.95C250.902 220.967 250.635 219.825 250.635 218.525C250.635 217.292 250.894 216.183 251.41 215.2C251.944 214.2 252.71 213.408 253.71 212.825C254.71 212.242 255.927 211.95 257.36 211.95C258.744 211.95 259.935 212.233 260.935 212.8C261.935 213.367 262.71 214.167 263.26 215.2C263.81 216.233 264.085 217.458 264.085 218.875V226.45C264.085 227.567 263.76 228.45 263.11 229.1C262.477 229.75 261.594 230.075 260.46 230.075H253.31ZM257.36 222.125C258.044 222.125 258.627 221.967 259.11 221.65C259.594 221.333 259.96 220.917 260.21 220.4C260.477 219.867 260.61 219.275 260.61 218.625C260.61 217.925 260.477 217.292 260.21 216.725C259.96 216.158 259.594 215.708 259.11 215.375C258.627 215.042 258.044 214.875 257.36 214.875C256.694 214.875 256.11 215.042 255.61 215.375C255.127 215.692 254.752 216.125 254.485 216.675C254.235 217.225 254.11 217.842 254.11 218.525C254.11 219.192 254.235 219.8 254.485 220.35C254.752 220.883 255.127 221.317 255.61 221.65C256.11 221.967 256.694 222.125 257.36 222.125ZM273.822 225V212.25H277.272V225H273.822ZM275.547 210.725C274.963 210.725 274.455 210.517 274.022 210.1C273.605 209.667 273.397 209.158 273.397 208.575C273.397 207.992 273.605 207.492 274.022 207.075C274.455 206.642 274.963 206.425 275.547 206.425C276.13 206.425 276.63 206.642 277.047 207.075C277.48 207.492 277.697 207.992 277.697 208.575C277.697 209.158 277.48 209.667 277.047 210.1C276.63 210.517 276.13 210.725 275.547 210.725ZM280.487 225V217.425C280.487 216.425 280.728 215.508 281.212 214.675C281.695 213.842 282.387 213.183 283.287 212.7C284.203 212.2 285.303 211.95 286.587 211.95C287.203 211.95 287.77 212.025 288.287 212.175C288.82 212.308 289.312 212.508 289.762 212.775C290.212 213.042 290.603 213.358 290.937 213.725H290.962C291.312 213.358 291.712 213.042 292.162 212.775C292.612 212.508 293.103 212.308 293.637 212.175C294.17 212.025 294.745 211.95 295.362 211.95C296.645 211.95 297.737 212.2 298.637 212.7C299.553 213.183 300.253 213.842 300.737 214.675C301.22 215.508 301.462 216.425 301.462 217.425V225H298.037V217.425C298.037 216.958 297.912 216.533 297.662 216.15C297.428 215.767 297.112 215.458 296.712 215.225C296.312 214.992 295.862 214.875 295.362 214.875C294.878 214.875 294.428 214.992 294.012 215.225C293.612 215.458 293.287 215.767 293.037 216.15C292.803 216.533 292.687 216.958 292.687 217.425V225H289.262V217.425C289.262 216.958 289.137 216.533 288.887 216.15C288.653 215.767 288.337 215.458 287.937 215.225C287.537 214.992 287.087 214.875 286.587 214.875C286.103 214.875 285.653 214.992 285.237 215.225C284.837 215.458 284.512 215.767 284.262 216.15C284.028 216.533 283.912 216.958 283.912 217.425V225H280.487ZM311.306 211.95C312.389 211.95 313.347 212.125 314.181 212.475C315.014 212.808 315.714 213.292 316.281 213.925C316.847 214.542 317.281 215.275 317.581 216.125C317.881 216.958 318.031 217.875 318.031 218.875C318.031 220.125 317.772 221.233 317.256 222.2C316.756 223.167 316.047 223.925 315.131 224.475C314.214 225.025 313.131 225.3 311.881 225.3C311.347 225.3 310.831 225.225 310.331 225.075C309.847 224.925 309.406 224.708 309.006 224.425C308.622 224.142 308.297 223.808 308.031 223.425H308.006V230.5H304.581V218.875C304.581 217.458 304.856 216.233 305.406 215.2C305.956 214.167 306.731 213.367 307.731 212.8C308.747 212.233 309.939 211.95 311.306 211.95ZM311.306 214.875C310.639 214.875 310.056 215.042 309.556 215.375C309.072 215.708 308.697 216.158 308.431 216.725C308.181 217.292 308.056 217.925 308.056 218.625C308.056 219.325 308.181 219.958 308.431 220.525C308.697 221.092 309.072 221.542 309.556 221.875C310.056 222.208 310.639 222.375 311.306 222.375C311.989 222.375 312.572 222.208 313.056 221.875C313.539 221.542 313.906 221.092 314.156 220.525C314.422 219.958 314.556 219.325 314.556 218.625C314.556 217.925 314.422 217.292 314.156 216.725C313.906 216.158 313.539 215.708 313.056 215.375C312.572 215.042 311.989 214.875 311.306 214.875ZM325.551 225.3C324.384 225.3 323.368 225 322.501 224.4C321.634 223.8 320.959 223 320.476 222C320.009 220.983 319.776 219.867 319.776 218.65C319.776 217.4 320.043 216.267 320.576 215.25C321.126 214.233 321.909 213.433 322.926 212.85C323.943 212.25 325.159 211.95 326.576 211.95C328.009 211.95 329.218 212.25 330.201 212.85C331.184 213.45 331.934 214.258 332.451 215.275C332.968 216.292 333.226 217.417 333.226 218.65V225H329.801V222.875H329.751C329.501 223.325 329.184 223.733 328.801 224.1C328.434 224.467 327.984 224.758 327.451 224.975C326.918 225.192 326.284 225.3 325.551 225.3ZM326.526 222.375C327.193 222.375 327.768 222.208 328.251 221.875C328.734 221.542 329.101 221.092 329.351 220.525C329.618 219.942 329.751 219.3 329.751 218.6C329.751 217.9 329.618 217.275 329.351 216.725C329.101 216.158 328.734 215.708 328.251 215.375C327.768 215.042 327.193 214.875 326.526 214.875C325.843 214.875 325.251 215.042 324.751 215.375C324.268 215.708 323.893 216.158 323.626 216.725C323.376 217.275 323.251 217.9 323.251 218.6C323.251 219.3 323.376 219.942 323.626 220.525C323.893 221.092 324.268 221.542 324.751 221.875C325.251 222.208 325.843 222.375 326.526 222.375ZM336.468 225V212.25H339.918V225H336.468ZM338.193 210.725C337.61 210.725 337.102 210.517 336.668 210.1C336.252 209.667 336.043 209.158 336.043 208.575C336.043 207.992 336.252 207.492 336.668 207.075C337.102 206.642 337.61 206.425 338.193 206.425C338.777 206.425 339.277 206.642 339.693 207.075C340.127 207.492 340.343 207.992 340.343 208.575C340.343 209.158 340.127 209.667 339.693 210.1C339.277 210.517 338.777 210.725 338.193 210.725ZM343.008 225V215.875C343.008 214.742 343.325 213.858 343.958 213.225C344.608 212.575 345.5 212.25 346.633 212.25H350.158V215.175H347.233C347.017 215.175 346.825 215.25 346.658 215.4C346.508 215.55 346.433 215.742 346.433 215.975V225H343.008ZM352.044 225V217.425C352.044 216.425 352.286 215.508 352.769 214.675C353.253 213.842 353.944 213.183 354.844 212.7C355.761 212.2 356.861 211.95 358.144 211.95C358.761 211.95 359.328 212.025 359.844 212.175C360.378 212.308 360.869 212.508 361.319 212.775C361.769 213.042 362.161 213.358 362.494 213.725H362.519C362.869 213.358 363.269 213.042 363.719 212.775C364.169 212.508 364.661 212.308 365.194 212.175C365.728 212.025 366.303 211.95 366.919 211.95C368.203 211.95 369.294 212.2 370.194 212.7C371.111 213.183 371.811 213.842 372.294 214.675C372.778 215.508 373.019 216.425 373.019 217.425V225H369.594V217.425C369.594 216.958 369.469 216.533 369.219 216.15C368.986 215.767 368.669 215.458 368.269 215.225C367.869 214.992 367.419 214.875 366.919 214.875C366.436 214.875 365.986 214.992 365.569 215.225C365.169 215.458 364.844 215.767 364.594 216.15C364.361 216.533 364.244 216.958 364.244 217.425V225H360.819V217.425C360.819 216.958 360.694 216.533 360.444 216.15C360.211 215.767 359.894 215.458 359.494 215.225C359.094 214.992 358.644 214.875 358.144 214.875C357.661 214.875 357.211 214.992 356.794 215.225C356.394 215.458 356.069 215.767 355.819 216.15C355.586 216.533 355.469 216.958 355.469 217.425V225H352.044ZM382.688 225C381.238 225 379.972 224.725 378.888 224.175C377.822 223.608 376.988 222.842 376.388 221.875C375.805 220.908 375.513 219.825 375.513 218.625C375.513 217.275 375.788 216.1 376.338 215.1C376.888 214.1 377.638 213.325 378.588 212.775C379.538 212.225 380.613 211.95 381.813 211.95C383.247 211.95 384.405 212.25 385.288 212.85C386.188 213.45 386.847 214.258 387.263 215.275C387.68 216.275 387.888 217.392 387.888 218.625C387.888 218.792 387.88 218.992 387.863 219.225C387.847 219.442 387.822 219.608 387.788 219.725H379.163C379.297 220.242 379.522 220.675 379.838 221.025C380.172 221.375 380.58 221.642 381.063 221.825C381.563 221.992 382.122 222.075 382.738 222.075H386.288V225H382.688ZM379.138 217.425H384.463C384.43 217.108 384.372 216.817 384.288 216.55C384.205 216.267 384.088 216.017 383.938 215.8C383.788 215.583 383.613 215.4 383.413 215.25C383.213 215.1 382.98 214.983 382.713 214.9C382.447 214.817 382.155 214.775 381.838 214.775C381.422 214.775 381.047 214.85 380.713 215C380.397 215.15 380.13 215.35 379.913 215.6C379.697 215.85 379.522 216.133 379.388 216.45C379.272 216.767 379.188 217.092 379.138 217.425ZM390.301 225V217.675C390.301 216.625 390.543 215.667 391.026 214.8C391.526 213.933 392.243 213.242 393.176 212.725C394.11 212.208 395.226 211.95 396.526 211.95C397.843 211.95 398.96 212.208 399.876 212.725C400.81 213.242 401.518 213.933 402.001 214.8C402.501 215.667 402.751 216.625 402.751 217.675V225H399.326V217.675C399.326 217.158 399.201 216.692 398.951 216.275C398.701 215.842 398.36 215.5 397.926 215.25C397.51 215 397.043 214.875 396.526 214.875C396.01 214.875 395.535 215 395.101 215.25C394.685 215.5 394.351 215.842 394.101 216.275C393.851 216.692 393.726 217.158 393.726 217.675V225H390.301ZM410.425 225C409.291 225 408.4 224.675 407.75 224.025C407.116 223.375 406.8 222.492 406.8 221.375V209.05H410.225V221.275C410.225 221.492 410.3 221.683 410.45 221.85C410.616 222 410.808 222.075 411.025 222.075H413.8V225H410.425ZM404.625 215.175V212.25H413.8V215.175H404.625ZM416.474 225V222.075H422.699C422.899 222.075 423.074 222.033 423.224 221.95C423.391 221.867 423.516 221.75 423.599 221.6C423.699 221.45 423.749 221.283 423.749 221.1C423.749 220.9 423.699 220.725 423.599 220.575C423.516 220.425 423.391 220.308 423.224 220.225C423.074 220.125 422.899 220.075 422.699 220.075H420.299C419.483 220.075 418.741 219.95 418.074 219.7C417.424 219.433 416.899 219.017 416.499 218.45C416.116 217.867 415.924 217.108 415.924 216.175C415.924 215.458 416.099 214.808 416.449 214.225C416.816 213.625 417.299 213.15 417.899 212.8C418.516 212.433 419.191 212.25 419.924 212.25H425.899V215.175H420.249C419.999 215.175 419.774 215.258 419.574 215.425C419.391 215.592 419.299 215.808 419.299 216.075C419.299 216.342 419.391 216.567 419.574 216.75C419.758 216.917 419.983 217 420.249 217H422.649C423.566 217 424.358 217.142 425.024 217.425C425.691 217.692 426.208 218.117 426.574 218.7C426.941 219.283 427.124 220.05 427.124 221C427.124 221.733 426.941 222.408 426.574 223.025C426.208 223.625 425.716 224.108 425.099 224.475C424.483 224.825 423.791 225 423.024 225H416.474Z" fill="#BABECF"/>
</g>
<defs>
<filter id="filter0_d_193_5" x="154.155" y="104.74" width="234.621" height="24.5601" filterUnits="userSpaceOnUse" color-interpolation-filters="sRGB">
<feFlood flood-opacity="0" result="BackgroundImageFix"/>
<feColorMatrix in="SourceAlpha" type="matrix" values="0 0 0 0 0 0 0 0 0 0 0 0 0 0 0 0 0 0 127 0" result="hardAlpha"/>
<feOffset dx="1" dy="1"/>
<feGaussianBlur stdDeviation="0.5"/>
<feComposite in2="hardAlpha" operator="out"/>
<feColorMatrix type="matrix" values="0 0 0 0 1 0 0 0 0 1 0 0 0 0 1 0 0 0 1 0"/>
<feBlend mode="normal" in2="BackgroundImageFix" result="effect1_dropShadow_193_5"/>
<feBlend mode="normal" in="SourceGraphic" in2="effect1_dropShadow_193_5" result="shape"/>
</filter>
<filter id="filter1_d_193_5" x="215.723" y="50.28" width="110.572" height="45.4399" filterUnits="userSpaceOnUse" color-interpolation-filters="sRGB">
<feFlood flood-opacity="0" result="BackgroundImageFix"/>
<feColorMatrix in="SourceAlpha" type="matrix" values="0 0 0 0 0 0 0 0 0 0 0 0 0 0 0 0 0 0 127 0" result="hardAlpha"/>
<feOffset dx="1" dy="1"/>
<feGaussianBlur stdDeviation="0.5"/>
<feComposite in2="hardAlpha" operator="out"/>
<feColorMatrix type="matrix" values="0 0 0 0 1 0 0 0 0 1 0 0 0 0 1 0 0 0 1 0"/>
<feBlend mode="normal" in2="BackgroundImageFix" result="effect1_dropShadow_193_5"/>
<feBlend mode="normal" in="SourceGraphic" in2="effect1_dropShadow_193_5" result="shape"/>
</filter>
<filter id="filter2_d_193_5" x="225.176" y="265" width="98" height="93.3333" filterUnits="userSpaceOnUse" color-interpolation-filters="sRGB">
<feFlood flood-opacity="0" result="BackgroundImageFix"/>
<feColorMatrix in="SourceAlpha" type="matrix" values="0 0 0 0 0 0 0 0 0 0 0 0 0 0 0 0 0 0 127 0" result="hardAlpha"/>
<feOffset dx="4" dy="4"/>
<feGaussianBlur stdDeviation="2"/>
<feComposite in2="hardAlpha" operator="out"/>
<feColorMatrix type="matrix" values="0 0 0 0 0 0 0 0 0 0 0 0 0 0 0 0 0 0 0.25 0"/>
<feBlend mode="normal" in2="BackgroundImageFix" result="effect1_dropShadow_193_5"/>
<feBlend mode="normal" in="SourceGraphic" in2="effect1_dropShadow_193_5" result="shape"/>
</filter>
<filter id="filter3_d_193_5" x="366.353" y="265" width="98" height="93.3333" filterUnits="userSpaceOnUse" color-interpolation-filters="sRGB">
<feFlood flood-opacity="0" result="BackgroundImageFix"/>
<feColorMatrix in="SourceAlpha" type="matrix" values="0 0 0 0 0 0 0 0 0 0 0 0 0 0 0 0 0 0 127 0" result="hardAlpha"/>
<feOffset dx="4" dy="4"/>
<feGaussianBlur stdDeviation="2"/>
<feComposite in2="hardAlpha" operator="out"/>
<feColorMatrix type="matrix" values="0 0 0 0 0 0 0 0 0 0 0 0 0 0 0 0 0 0 0.25 0"/>
<feBlend mode="normal" in2="BackgroundImageFix" result="effect1_dropShadow_193_5"/>
<feBlend mode="normal" in="SourceGraphic" in2="effect1_dropShadow_193_5" result="shape"/>
</filter>
<filter id="filter4_d_193_5" x="84" y="265" width="98" height="93.3333" filterUnits="userSpaceOnUse" color-interpolation-filters="sRGB">
<feFlood flood-opacity="0" result="BackgroundImageFix"/>
<feColorMatrix in="SourceAlpha" type="matrix" values="0 0 0 0 0 0 0 0 0 0 0 0 0 0 0 0 0 0 127 0" result="hardAlpha"/>
<feOffset dx="4" dy="4"/>
<feGaussianBlur stdDeviation="2"/>
<feComposite in2="hardAlpha" operator="out"/>
<feColorMatrix type="matrix" values="0 0 0 0 0 0 0 0 0 0 0 0 0 0 0 0 0 0 0.25 0"/>
<feBlend mode="normal" in2="BackgroundImageFix" result="effect1_dropShadow_193_5"/>
<feBlend mode="normal" in="SourceGraphic" in2="effect1_dropShadow_193_5" result="shape"/>
</filter>
<filter id="filter5_d_193_5" x="389" y="294" width="45" height="36.3667" filterUnits="userSpaceOnUse" color-interpolation-filters="sRGB">
<feFlood flood-opacity="0" result="BackgroundImageFix"/>
<feColorMatrix in="SourceAlpha" type="matrix" values="0 0 0 0 0 0 0 0 0 0 0 0 0 0 0 0 0 0 127 0" result="hardAlpha"/>
<feOffset dy="4"/>
<feGaussianBlur stdDeviation="2"/>
<feComposite in2="hardAlpha" operator="out"/>
<feColorMatrix type="matrix" values="0 0 0 0 0 0 0 0 0 0 0 0 0 0 0 0 0 0 0.25 0"/>
<feBlend mode="normal" in2="BackgroundImageFix" result="effect1_dropShadow_193_5"/>
<feBlend mode="normal" in="SourceGraphic" in2="effect1_dropShadow_193_5" result="shape"/>
</filter>
<filter id="filter6_d_193_5" x="101" y="291" width="55.9302" height="41.9834" filterUnits="userSpaceOnUse" color-interpolation-filters="sRGB">
<feFlood flood-opacity="0" result="BackgroundImageFix"/>
<feColorMatrix in="SourceAlpha" type="matrix" values="0 0 0 0 0 0 0 0 0 0 0 0 0 0 0 0 0 0 127 0" result="hardAlpha"/>
<feOffset dy="4"/>
<feGaussianBlur stdDeviation="2"/>
<feComposite in2="hardAlpha" operator="out"/>
<feColorMatrix type="matrix" values="0 0 0 0 0 0 0 0 0 0 0 0 0 0 0 0 0 0 0.25 0"/>
<feBlend mode="normal" in2="BackgroundImageFix" result="effect1_dropShadow_193_5"/>
<feBlend mode="normal" in="SourceGraphic" in2="effect1_dropShadow_193_5" result="shape"/>
</filter>
<filter id="filter7_d_193_5" x="250" y="287" width="40" height="49.739" filterUnits="userSpaceOnUse" color-interpolation-filters="sRGB">
<feFlood flood-opacity="0" result="BackgroundImageFix"/>
<feColorMatrix in="SourceAlpha" type="matrix" values="0 0 0 0 0 0 0 0 0 0 0 0 0 0 0 0 0 0 127 0" result="hardAlpha"/>
<feOffset dy="4"/>
<feGaussianBlur stdDeviation="2"/>
<feComposite in2="hardAlpha" operator="out"/>
<feColorMatrix type="matrix" values="0 0 0 0 0 0 0 0 0 0 0 0 0 0 0 0 0 0 0.25 0"/>
<feBlend mode="normal" in2="BackgroundImageFix" result="effect1_dropShadow_193_5"/>
<feBlend mode="normal" in="SourceGraphic" in2="effect1_dropShadow_193_5" result="shape"/>
</filter>
<filter id="filter8_i_193_5" x="84" y="151" width="376.35" height="94" filterUnits="userSpaceOnUse" color-interpolation-filters="sRGB">
<feFlood flood-opacity="0" result="BackgroundImageFix"/>
<feBlend mode="normal" in="SourceGraphic" in2="BackgroundImageFix" result="shape"/>
<feColorMatrix in="SourceAlpha" type="matrix" values="0 0 0 0 0 0 0 0 0 0 0 0 0 0 0 0 0 0 127 0" result="hardAlpha"/>
<feOffset dx="4" dy="4"/>
<feGaussianBlur stdDeviation="2"/>
<feComposite in2="hardAlpha" operator="arithmetic" k2="-1" k3="1"/>
<feColorMatrix type="matrix" values="0 0 0 0 0 0 0 0 0 0 0 0 0 0 0 0 0 0 0.25 0"/>
<feBlend mode="normal" in2="shape" result="effect1_innerShadow_193_5"/>
</filter>
<filter id="filter9_i_193_5" x="114.447" y="166.425" width="312.678" height="68.075" filterUnits="userSpaceOnUse" color-interpolation-filters="sRGB">
<feFlood flood-opacity="0" result="BackgroundImageFix"/>
<feBlend mode="normal" in="SourceGraphic" in2="BackgroundImageFix" result="shape"/>
<feColorMatrix in="SourceAlpha" type="matrix" values="0 0 0 0 0 0 0 0 0 0 0 0 0 0 0 0 0 0 127 0" result="hardAlpha"/>
<feOffset dy="4"/>
<feGaussianBlur stdDeviation="2"/>
<feComposite in2="hardAlpha" operator="arithmetic" k2="-1" k3="1"/>
<feColorMatrix type="matrix" values="0 0 0 0 0 0 0 0 0 0 0 0 0 0 0 0 0 0 0.25 0"/>
<feBlend mode="normal" in2="shape" result="effect1_innerShadow_193_5"/>
</filter>
</defs>
</svg>
